<svg version="1.2" xmlns="http://www.w3.org/2000/svg" viewBox="0 0 367 662" width="367" height="662"><style>.a{fill:#6eba00}.b{fill:#558206}.c{fill:#917305}.d{fill:#b49000}.e{fill:#6b5203}.f{opacity:.5;mix-blend-mode:screen;fill:#b49000}.g{fill:#2d5b00}.h{fill:#4e9200}.i{fill:#3e6b03}.j{fill:#8bd506}.k{mix-blend-mode:screen;fill:#8bd506}.l{opacity:.3;mix-blend-mode:multiply;fill:#4e9200}.m{opacity:.3;mix-blend-mode:multiply;fill:#3e6b03}.n{opacity:.6;mix-blend-mode:multiply;fill:#3e6b03}.o{fill:#1d1d1b}.p{mix-blend-mode:screen;fill:#6eba00}.q{opacity:.5;mix-blend-mode:multiply;fill:#6eba00}</style><path class="a" d="m174.6 650c0 0-14.3-1.1-38.8 3.7-24.6 4.8 20.7 0.5 56.6 3.5 35.9 2.9 85.4 6.2 73.3 2.1-12.1-4-6-3.7 23.7-2.3 29.7 1.5 0.9-8.4-25.8-8.8-26.7-0.4-89 1.8-89 1.8z"/><path class="b" d="m266.1 652.6c0 0 14.1-8.9 22.3-8.1-8.7-2.7-17.1-0.4-17.1-0.4 0 0 13.4-11.1 23.4-11.4-11.9-0.9-19.1 1.3-19.1 1.3 0 0 8.8-9.7 19.8-10.7 0 0-12.6-2.6-25.6 3.8 6.2-7.3 18-16.9 18-16.9 0 0-9.1-0.6-15.9 7.5 4.7-10.7 11.8-20.8 11.8-20.8 0 0-16.3 6-23.9 25.6-7.6 19.6 6.3 30.1 6.3 30.1z"/><path class="c" d="m226.7 582.1l-17.5 64 15.5 2 6.1-8.8-1.6 9.8 4.4 1 4.4-5 0.9 6.8 15 2.4c0 0 3.4-8.5 3.7-7.3 0.3 1.1 0.4 6.7 0.4 6.7l14.7-2.1c0 0 4.6-47.4 2.3-61.9-2.3-14.5-32.7-41.3-48.3-7.6z"/><g style="mix-blend-mode:screen"><path class="d" d="m241.8 612.2c-0.6 3.6-2.8 6.2-4.8 5.9-2.1-0.3-3.3-3.3-2.7-6.9 0.5-3.5 2.7-6.1 4.7-5.8 2.1 0.2 3.3 3.3 2.8 6.8z"/><path class="d" d="m241.2 628.4c-0.3 1.6-1.4 2.8-2.5 2.6-1.1-0.1-1.8-1.6-1.5-3.2 0.3-1.6 1.4-2.8 2.5-2.6 1.1 0.1 1.8 1.6 1.5 3.2z"/></g><path class="e" d="m273.7 585.4c-2.9-6.4-9.6-13.9-17.6-17.4 0.8 8.5 3.8 53.8-15.7 84.1l13.5 2.2c0 0 3.4-8.5 3.7-7.3 0.3 1.1 0.4 6.7 0.4 6.7l7.4-1c6-25.6 7.8-52.6 8.3-67.3z"/><g style="opacity:.6;mix-blend-mode:multiply"><path class="c" d="m275.6 601.8c0-4.9-0.2-9.2-0.6-12.1-2.3-14.5-32.7-41.3-48.3-7.6l-4.3 15.9c8.4 5.8 26.9 14.2 53.2 3.8z"/></g><g style="opacity:.5;mix-blend-mode:screen"><path class="d" d="m247.3 565.8c-7.4-0.1-15 4.2-20.6 16.3l-17.5 64 15.5 2 6.1-8.8-1.6 9.8 1.3 0.3c19.5-32.7 17.5-74.9 16.8-83.6z"/></g><path class="f" d="m225.5 603.1c0 0-8.1 32.2-12.7 40.1 8.5 2.6 8.5 2.6 8.5 2.6 0 0 8-23 4.2-42.7z"/><path class="c" d="m239.3 530.1l-16.6 64.7 12.6 1.8 5.3-9-1.6 9.9 3.6 0.9 3.8-5.1 0.5 6.9 12.2 2.1c0 0 3.1-8.6 3.3-7.4 0.3 1.1 0.2 6.8 0.2 6.8l12.1-2.4c0 0 5.4-47.9 4.1-62.4-1.4-14.5-25.5-41-39.5-6.8z"/><g style="mix-blend-mode:screen"><path class="d" d="m250.6 560.2c-0.6 3.5-2.4 6.2-4.1 6-1.7-0.3-2.6-3.3-2-6.9 0.6-3.6 2.4-6.2 4.1-6 1.7 0.2 2.6 3.3 2 6.9z"/><path class="d" d="m249.6 576.4c-0.3 1.7-1.2 2.9-2.1 2.8-0.9-0.2-1.5-1.6-1.2-3.2 0.3-1.7 1.2-2.9 2.1-2.7 0.9 0.1 1.5 1.5 1.2 3.1z"/></g><path class="e" d="m277.9 532.6c-2.2-6.5-7.5-13.8-13.9-17.2 0.4 8.5 1.2 54.1-15.9 85l11 1.9c0 0 3.1-8.6 3.3-7.4 0.3 1.1 0.2 6.8 0.2 6.8l6-1.2c5.9-25.9 8.3-53.1 9.3-67.9z"/><g style="opacity:.6;mix-blend-mode:multiply"><path class="c" d="m278.9 549.1c0.1-5 0.2-9.3-0.1-12.2-1.4-14.5-25.5-41-39.5-6.8l-4.2 16.1c6.8 5.6 21.7 13.8 43.8 2.9z"/></g><g style="opacity:.5;mix-blend-mode:screen"><path class="d" d="m256.8 513.4c-6.1-0.1-12.5 4.4-17.5 16.7l-16.6 64.7 12.6 1.8 5.3-9-1.6 9.9 1 0.3c17.2-33.3 17.1-75.8 16.8-84.4z"/></g><path class="f" d="m237.6 551.3c0 0-7.9 32.5-11.9 40.6 6.9 2.4 6.9 2.4 6.9 2.4 0 0 7.4-23.2 5-43z"/><path class="c" d="m247.3 486.7c0 0-7 39.7-14.9 54 11.7 3.4 11.7 3.4 11.7 3.4l4.3-5.4-0.2 6 6.2 0.9 3.9-5.5 0.3 8.1 9.1 1.5 3-7.8 1.3 7.3 7.7-0.6c0 0 5.3-34.1-4.2-55.8-9.6-21.7-26.1-16.3-28.2-6.1z"/><g style="mix-blend-mode:screen"><path class="d" d="m254.2 513.4c-0.3 2.3-1.9 3.9-3.4 3.7-1.6-0.2-2.5-2.2-2.1-4.5 0.4-2.3 1.9-4 3.4-3.7 1.6 0.2 2.5 2.2 2.1 4.5z"/><path class="d" d="m261.1 506.4c-0.3 1.6-1.4 2.8-2.5 2.6-1.2-0.1-1.8-1.6-1.6-3.2 0.3-1.6 1.4-2.8 2.6-2.7 1.1 0.2 1.8 1.6 1.5 3.3z"/><path class="d" d="m260.2 527.8c-0.3 1.3-1.4 2.3-2.5 2.1-1.1-0.1-1.8-1.4-1.6-2.7 0.2-1.4 1.3-2.4 2.4-2.2 1.2 0.2 1.9 1.4 1.7 2.8z"/></g><path class="e" d="m275.5 492.8c-2.9-6.5-6.4-10.6-9.9-12.8 0 14.8-0.3 46.1-4 68.7l6.1 1 3-7.8 1.3 7.3 3.8-0.3c2.4-17.7 1.2-41.2 0.1-55.1q-0.2-0.5-0.4-1z"/><g style="opacity:.5;mix-blend-mode:screen"><path class="d" d="m257.8 477.8c-5.2 0.3-9.5 4.1-10.5 8.9 0 0-7 39.7-14.9 54 11.7 3.4 11.7 3.4 11.7 3.4l4.3-5.4-0.2 6 1.8 0.2c7.7-24.9 8.4-50.9 7.8-67.1z"/></g><g style="opacity:.6;mix-blend-mode:multiply"><path class="c" d="m278.4 501.4c-0.8-3-1.7-5.9-2.9-8.6-9.6-21.7-26.1-16.3-28.2-6.1 0 0-0.8 4.2-2.1 10.4 5.3 2.5 15.9 5.8 33.2 4.3z"/></g><path class="f" d="m247.1 500.2c0 0-4.4 23.9-10.1 38 5.8 1.1 5.8 1.1 5.8 1.1 0 0 8.1-20.9 4.3-39.1z"/><path class="c" d="m250.2 452.9c0 0-0.9 23.6-8.3 37.2 12.6 2.9 12.6 2.9 12.6 2.9l3.6-4.9-0.4 5.4 7.2 1.7 1.1-2.6 1.2 3 15.9 3.2c0 0 2.1-24.3-3.3-43.7 0 0-24.3-12.3-29.6-2.2z"/><g style="opacity:.5;mix-blend-mode:screen"><path class="d" d="m250.2 452.9c0 0-0.9 23.6-8.3 37.2 12.6 2.9 12.6 2.9 12.6 2.9l3.6-4.9-0.4 5.4 2 0.5c5.6-18.9 3-36 0.9-45-4.6-0.4-8.6 0.5-10.4 3.9z"/></g><g style="opacity:.5;mix-blend-mode:screen"><path class="d" d="m261.6 469.3c-0.2 1.8-1.6 3.2-3.1 3-1.6-0.2-2.6-1.8-2.4-3.6 0.1-1.8 1.5-3.2 3.1-3 1.5 0.2 2.6 1.8 2.4 3.6z"/><path class="d" d="m261 480c-0.3 0.7-1.2 1.1-2 0.9-0.9-0.1-1.3-0.7-1.1-1.4 0.3-0.6 1.2-1 2.1-0.9 0.8 0.2 1.3 0.8 1 1.4z"/><path class="d" d="m266.4 467c-0.3 0.7-1.2 1-2 0.9-0.9-0.2-1.3-0.8-1.1-1.4 0.3-0.6 1.2-1 2-0.8 0.9 0.1 1.4 0.7 1.1 1.3z"/></g><path class="e" d="m279.8 455.1c0 0-5-2.5-11-4.4 2.6 11.3 6.4 31.5 3.3 45.9l3.7 0.7c4.2-11 5.5-26.3 5.9-33.6-0.5-2.9-1.1-5.8-1.9-8.6z"/><g style="opacity:.6;mix-blend-mode:multiply"><path class="c" d="m281.1 460.8q-0.5-2.9-1.3-5.7c0 0-24.3-12.3-29.6-2.2 0 0-0.1 2.5-0.5 6.2 6.3 1.7 17.7 3.7 31.4 1.7z"/></g><path class="f" d="m251 461.5c0 0-0.3 18.4-6.9 27.4 7.8 1.7 7.8 1.7 7.8 1.7 0 0 7.6-17.5-0.9-29.1z"/><path class="c" d="m252.9 407.5c0 0 1 31.8-8.4 47 13.5 1.3 13.5 1.3 13.5 1.3l2.9-5.5-0.3 5.6 13.7 3.6 1.2-6.3 3.6 7.4 8.9-1c0 0-1.3-38.5-4.9-49.4-3.7-11-26.4-15-30.2-2.7z"/><g style="opacity:.5;mix-blend-mode:screen"><path class="d" d="m262.7 425.9c-0.4 2.2-1.9 3.8-3.4 3.6-1.5-0.2-2.4-2.2-2-4.4 0.4-2.1 2-3.8 3.5-3.6 1.5 0.2 2.3 2.2 1.9 4.4z"/><path class="d" d="m262.3 436.8c-0.2 1.1-0.9 1.9-1.7 1.8-0.7-0.1-1.2-1.1-1-2.2 0.2-1.1 1-1.9 1.7-1.8 0.8 0.1 1.2 1.1 1 2.2z"/></g><g style="opacity:.5;mix-blend-mode:screen"><path class="d" d="m252.9 407.5c0 0 1 31.8-8.4 47 13.5 1.3 13.5 1.3 13.5 1.3l2.9-5.5-0.3 5.6 1.4 0.4c6.7-18.4 2.8-43.3 0-56.1-4.3 0.8-7.8 3.1-9.1 7.3z"/></g><g style="opacity:.6;mix-blend-mode:multiply"><path class="c" d="m284.5 416.5c-0.4-2.5-0.9-4.7-1.4-6.3-3.7-11-26.4-15-30.2-2.7 0 0 0.1 3.4-0.1 8.5 7.1 2.5 18.4 4.6 31.7 0.5z"/></g><path class="f" d="m254.1 423.2c0 0-1.1 18.9-6.1 30 4.2 0.3 5.3 0.4 5.3 0.4 0 0 6.9-18.7 0.8-30.4z"/><path class="e" d="m283.1 410.2c-1.4-4.2-5.5-7.3-10.2-8.9 3.3 10.7 7.9 31.5 3.3 53.4l2.9 5.9 4.4-0.5c1.8-5.2 3-11.3 3.7-17-0.8-11.8-2.1-26.8-4.1-32.9z"/><path class="c" d="m255.6 354.2l-5.3 57.6 9.4 0.2 2.9-8.4-0.2 8.7 2.7 0.4 2.2-4.8 1.1 5.9 9.1 0.4c0 0 1.4-7.7 1.7-6.7 0.2 0.9 0.7 5.8 0.7 5.8l8.6-3.4c0 0-1-41.8-3.5-54.1-2.5-12.4-22.7-32.5-29.4-1.6z"/><g style="mix-blend-mode:screen"><path class="d" d="m267 378.9c-0.1 3.1-1.2 5.7-2.4 5.6-1.3 0-2.2-2.5-2.2-5.7 0.1-3.1 1.2-5.6 2.4-5.6 1.3 0 2.2 2.6 2.2 5.7z"/><path class="d" d="m267.9 393c0 1.4-0.6 2.6-1.2 2.6-0.7 0-1.2-1.2-1.2-2.6 0-1.5 0.6-2.6 1.3-2.6 0.6 0 1.1 1.2 1.1 2.6z"/></g><path class="e" d="m283.9 352.2c-2.2-5.4-6.8-11.1-11.8-13.4 1.1 7.4 6.4 46.5-2.8 75l8.2 0.4c0 0 1.4-7.7 1.7-6.7 0.2 0.9 0.7 5.8 0.7 5.8l4.3-1.7c1.6-22.9 0.5-46.6-0.3-59.4z"/><g style="opacity:.6;mix-blend-mode:multiply"><path class="c" d="m286.3 366.3c-0.3-4.4-0.8-8.1-1.3-10.5-2.5-12.4-22.7-32.5-29.4-1.6l-1.3 14.4c5.5 4.1 17.2 9.5 32-2.3z"/></g><g style="opacity:.5;mix-blend-mode:screen"><path class="d" d="m266.6 337.9c-4.4 0.7-8.6 5.2-11 16.3l-5.3 57.6 9.4 0.2 2.9-8.4-0.2 8.7 0.8 0.2c9-30.6 4.5-67.1 3.4-74.6z"/></g><path class="f" d="m256.6 372.7c0 0-2.3 28.9-4.5 36.2 5.3 1.4 5.3 1.4 5.3 1.4 0 0 3-20.9-0.8-37.6z"/><path class="c" d="m258 294.4c0 0-1.2 45.9-5.5 63.4 8.8 2.1 8.8 2.1 8.8 2.1l2.5-6.8 0.5 6.8 4.6 0.1 2.2-6.8 1 9.1 6.7 0.5 1.4-9.4 1.7 8.1 5.5-1.8c0 0 0.4-39.5-8.5-62.7-9-23.1-20.4-14.6-20.9-2.6z"/><g style="mix-blend-mode:screen"><path class="d" d="m265.6 323.5c0 2.7-1 4.8-2.1 4.8-1.1-0.1-2-2.2-2-4.8 0.1-2.7 1-4.8 2.2-4.8 1.1 0 2 2.2 1.9 4.8z"/><path class="d" d="m269.8 314.6c0 1.9-0.7 3.4-1.5 3.4-0.8 0-1.5-1.6-1.4-3.5 0-1.9 0.7-3.4 1.5-3.4 0.9 0 1.5 1.6 1.4 3.5z"/><path class="d" d="m271.3 339c-0.1 1.5-0.8 2.8-1.6 2.8-0.8 0-1.4-1.3-1.4-2.9 0-1.6 0.7-2.8 1.5-2.8 0.8 0 1.5 1.3 1.5 2.9z"/></g><path class="e" d="m278.9 297c-2.7-7-5.6-11-8.4-13 1.5 16.7 4.3 52.3 3.8 78.5l4.5 0.3 1.4-9.4 1.7 8.1 2.7-0.9c0-20.5-3.2-46.9-5.3-62.6q-0.2-0.5-0.4-1z"/><g style="opacity:.5;mix-blend-mode:screen"><path class="d" d="m264.7 282.7c-3.7 1.1-6.4 6-6.7 11.7 0 0-1.2 45.9-5.5 63.4 8.8 2.1 8.8 2.1 8.8 2.1l2.5-6.8 0.5 6.8h1.4c3.1-29.4 1-59-1-77.2z"/></g><g style="opacity:.6;mix-blend-mode:multiply"><path class="c" d="m281.8 306.3c-0.8-3.2-1.8-6.4-2.9-9.3-9-23.1-20.4-14.6-20.9-2.6 0 0-0.1 4.8-0.4 12 4 2 12 4.2 24.2-0.1z"/></g><path class="f" d="m259.2 309.6c0 0-0.8 27.8-3.6 44.6 4.3 0.4 4.3 0.4 4.3 0.4 0 0 3.8-24.8-0.7-45z"/><path class="c" d="m251.8 240.2c0 0 5 36.3 3.7 59 8.5 1.1 8.5 1.1 8.5 1.1l1-8.4 1.1 8.4 4.8 0.8 0.1-4.2 1.4 4.2 10.6 0.8c0 0-4.4-37.6-12.3-65.9 0 0-18-12.7-18.9 4.2z"/><g style="opacity:.5;mix-blend-mode:screen"><path class="d" d="m251.8 240.2c0 0 5 36.3 3.7 59 8.5 1.1 8.5 1.1 8.5 1.1l1-8.4 1.1 8.4 1.3 0.2c-1-30.3-6.7-55.8-10.1-68.9-2.9 0.5-5.2 2.8-5.5 8.6z"/></g><g style="opacity:.5;mix-blend-mode:screen"><path class="d" d="m262.7 262.3c0.3 2.9-0.2 5.3-1.2 5.4-1 0.1-2-2.1-2.3-4.9-0.4-2.9 0.2-5.3 1.2-5.4 1-0.1 2 2.1 2.3 4.9z"/><path class="d" d="m264.9 278.9c0 1.1-0.5 1.9-1 1.9-0.6 0-1-0.9-1-1.9 0-1.1 0.5-2 1-1.9 0.6 0 1 0.8 1 1.9z"/><path class="d" d="m265.2 257.6c0 1-0.5 1.9-1.1 1.8-0.5 0-1-0.8-1-1.8 0.1-1 0.5-1.8 1.1-1.8 0.6 0 1 0.8 1 1.8z"/></g><path class="e" d="m270.7 236c0 0-3.8-2.6-7.9-3.9 4.3 16.5 11.4 46.4 12.9 69.3l2.5 0.2c0-18-2.9-41.7-4.3-53-1-4.3-2.1-8.6-3.2-12.6z"/><g style="opacity:.6;mix-blend-mode:multiply"><path class="c" d="m272.8 244.3q-1-4.3-2.1-8.3c0 0-18-12.7-18.9 4.2 0 0 0.5 3.7 1.2 9.6 4.3 0.9 11.8 1.1 19.8-5.5z"/></g><path class="f" d="m254.3 253.1c0 0 4.2 28.2 2.2 43.6 5.3 0.7 5.3 0.7 5.3 0.7 0 0 0.5-28.8-7.5-44.3z"/><path class="c" d="m238.7 195.9c0 0 10.9 32.2 10.5 50.4 8-2.5 8-2.5 8-2.5l-0.2-6.5 1.7 5.9 8.8-0.2-1.4-6.8 4.4 6.6 4.6-3.5c0 0-13.1-39.1-18.7-49.3-5.6-10.1-19.6-7.8-17.7 5.9z"/><g style="opacity:.5;mix-blend-mode:screen"><path class="d" d="m250.2 211.9c0.4 2.3 0.1 4.4-0.8 4.6-0.9 0.2-2-1.5-2.5-3.9-0.5-2.3-0.2-4.4 0.7-4.6 0.9-0.2 2.1 1.5 2.6 3.9z"/><path class="d" d="m253.5 223.1c0.2 1.2 0 2.3-0.4 2.4-0.5 0.1-1-0.8-1.3-2-0.2-1.2-0.1-2.2 0.4-2.3 0.5-0.1 1 0.8 1.3 1.9z"/></g><g style="opacity:.5;mix-blend-mode:screen"><path class="d" d="m238.7 195.9c0 0 10.9 32.2 10.5 50.4 8-2.5 8-2.5 8-2.5l-0.2-6.5 1.7 5.9h0.9c-2.2-20.7-12.5-45.1-18.2-57.3-2.1 1.9-3.3 5.3-2.7 10z"/></g><g style="opacity:.6;mix-blend-mode:multiply"><path class="c" d="m259.3 196.2c-1.1-2.6-2.1-4.7-2.9-6.2-5.6-10.1-19.6-7.8-17.7 5.9 0 0 1.2 3.4 2.7 8.7 4.7 0.5 11.7-0.6 17.9-8.4z"/></g><path class="f" d="m244.5 211.5c0 0 5.5 19.7 6.3 32.5 2.4-0.9 3-1.1 3-1.1 0 0-2.1-21-9.3-31.4z"/><path class="e" d="m256.4 190c-2.1-3.8-5.4-5.8-8.6-6.2 5.4 10.1 14.7 30 19.2 53.7l3.5 5.3 2.3-1.8c-0.7-5.8-2-12.4-3.5-18.4-4.2-11.9-9.8-26.8-12.9-32.6z"/><path class="c" d="m228.3 168.8c0 0 7.8 22.8 10.3 33.2 8.5-4 8.5-4 8.5-4l-1.9-8.2 3.2 7.9 3.6-1.9-0.5-4.6 2.1 3.6 7-3.1-23.4-43.8c0 0-9.6 8.6-8.9 20.9z"/><path class="f" d="m228.3 168.8c0 0 7.8 22.8 10.3 33.2 8.5-4 8.5-4 8.5-4l-1.7-7.2c-4.9-9.6-11.1-19.1-16.8-27-0.3 1.6-0.4 3.3-0.3 5z"/><path class="f" d="m243.7 181.4c0.8 2.2 0.5 4.4-0.6 4.9-1.1 0.4-2.6-1.1-3.4-3.4-0.8-2.2-0.5-4.4 0.6-4.9 1.1-0.4 2.6 1.1 3.4 3.4z"/><path class="f" d="m231.4 174.1c0 0 5 15 7.4 24.9 2.8-1 2.8-1 2.8-1 0 0-4.3-16.7-10.2-23.9z"/><path class="e" d="m260.6 191.7l-23.4-43.8c0 0-3.5 3.2-6.1 8.4 7 9.1 15.1 22.3 20.7 39.6l0.2-0.1-0.5-4.6 2.1 3.6z"/><path class="c" d="m185.8 606.2l-9.8 42.5 11.4 1.2 4-5.9-0.7 6.5 3.3 0.6 3-3.3 1 4.5 11.1 1.4c0 0 2.1-5.6 2.4-4.9 0.3 0.8 0.6 4.5 0.6 4.5l10.7-1.6c0 0 1.1-31.4-1.2-41-2.4-9.5-26-27-35.8-4.5z"/><g style="mix-blend-mode:screen"><path class="d" d="m198.2 626c-0.2 2.3-1.7 4.1-3.2 3.9-1.5-0.2-2.6-2.2-2.3-4.5 0.2-2.4 1.7-4.1 3.2-4 1.5 0.2 2.6 2.2 2.3 4.6z"/><path class="d" d="m198.6 636.7c-0.1 1-0.9 1.8-1.7 1.7-0.8 0-1.4-1-1.3-2.1 0.1-1 0.9-1.8 1.7-1.7 0.8 0.1 1.4 1 1.3 2.1z"/></g><path class="e" d="m220.4 607.9c-2.4-4.2-7.7-9.1-13.7-11.4 1 5.7 5.3 35.6-7.6 55.9l10 1.3c0 0 2.1-5.6 2.4-4.9 0.3 0.8 0.6 4.5 0.6 4.5l5.4-0.8c3.2-17 3.2-34.8 2.9-44.6z"/><g style="opacity:.6;mix-blend-mode:multiply"><path class="c" d="m222.6 618.8c-0.2-3.3-0.6-6.1-1-8.1-2.4-9.5-26-27-35.8-4.5l-2.5 10.6c6.5 3.7 20.4 9.1 39.3 2z"/></g><g style="opacity:.5;mix-blend-mode:screen"><path class="d" d="m200.1 595.2c-5.4 0-10.8 2.9-14.3 11l-9.8 42.5 11.4 1.2 4-5.9-0.7 6.5 1 0.2c12.8-21.9 9.3-49.8 8.4-55.5z"/></g><path class="f" d="m185.9 620.1c0 0-4.5 21.4-7.5 26.6 6.4 1.7 6.4 1.7 6.4 1.7 0 0 4.8-15.3 1.1-28.3z"/><path class="c" d="m186.7 553.4l-4.5 57.6h10l3-8.4v8.8l2.9 0.3 2.2-4.9 1.3 5.8 9.8 0.4c0 0 1.2-7.8 1.6-6.8 0.3 0.9 0.9 5.8 0.9 5.8l9.1-3.6c0 0-1.9-41.7-4.8-54-3-12.4-25-32.1-31.5-1z"/><g style="mix-blend-mode:screen"><path class="d" d="m199.4 577.8c0 3.2-1.1 5.7-2.5 5.7-1.3 0-2.4-2.5-2.4-5.7 0-3.1 1.1-5.6 2.4-5.6 1.4 0 2.5 2.5 2.5 5.6z"/><path class="d" d="m200.7 591.9c0 1.5-0.6 2.6-1.3 2.6-0.7 0-1.3-1.1-1.3-2.6 0-1.4 0.6-2.6 1.3-2.6 0.7 0 1.3 1.2 1.3 2.6z"/></g><path class="e" d="m216.9 550.8c-2.5-5.3-7.5-11-12.9-13.1 1.3 7.3 7.8 46.3-1.4 75l8.8 0.3c0 0 1.2-7.8 1.6-6.8 0.3 0.9 0.9 5.8 0.9 5.8l4.6-1.8c1.2-22.9-0.4-46.6-1.6-59.4z"/><g style="opacity:.6;mix-blend-mode:multiply"><path class="c" d="m219.8 564.8c-0.5-4.3-1.1-8-1.6-10.4-3-12.4-25-32.1-31.5-1l-1.1 14.4c6 3.9 18.5 9.1 34.2-3z"/></g><g style="opacity:.5;mix-blend-mode:screen"><path class="d" d="m198.2 536.9c-4.8 0.7-9.1 5.3-11.5 16.5l-4.5 57.6h10l3-8.4v8.8h0.8c9.1-30.7 3.5-67.1 2.2-74.5z"/></g><path class="f" d="m188.1 571.8c0 0-1.9 28.9-4 36.3 5.7 1.3 5.7 1.3 5.7 1.3 0 0 2.8-20.9-1.7-37.6z"/><path class="c" d="m188 493.5c0 0-0.3 46-4.5 63.4 9.4 2 9.4 2 9.4 2l2.6-6.8 0.6 6.8h4.9l2.3-6.8 1.2 9.1 7.2 0.3 1.3-9.4 1.9 8.1 5.8-2c0 0-0.3-39.5-10.3-62.5-10.1-23-22-14.2-22.4-2.2z"/><g style="mix-blend-mode:screen"><path class="d" d="m196.8 522.5c0 2.6-1 4.8-2.2 4.8-1.2 0-2.2-2.2-2.2-4.8 0-2.6 1-4.8 2.2-4.8 1.2 0 2.2 2.2 2.2 4.8z"/><path class="d" d="m201.1 513.5c0 1.8-0.7 3.4-1.6 3.4-0.9 0-1.6-1.6-1.6-3.4 0-1.9 0.7-3.5 1.6-3.5 0.9 0 1.6 1.6 1.6 3.5z"/><path class="d" d="m203.1 537.8c0 1.6-0.7 2.9-1.6 2.9-0.9 0-1.6-1.3-1.6-2.9 0-1.6 0.7-2.8 1.6-2.8 0.9 0 1.6 1.2 1.6 2.8z"/></g><path class="e" d="m210.4 495.7c-3-6.9-6.2-10.9-9.2-12.9 1.9 16.8 5.7 52.3 5.7 78.5l4.8 0.2 1.3-9.4 1.9 8.1 2.9-1c-0.4-20.5-4.4-46.8-7-62.4q-0.2-0.6-0.4-1.1z"/><g style="opacity:.5;mix-blend-mode:screen"><path class="d" d="m195 481.6c-4 1.2-6.8 6.2-7 11.9 0 0-0.3 46-4.5 63.4 9.4 2 9.4 2 9.4 2l2.6-6.8 0.6 6.8h1.5c2.7-29.5-0.1-59-2.6-77.3z"/></g><g style="opacity:.6;mix-blend-mode:multiply"><path class="c" d="m213.7 505c-1-3.3-2.1-6.4-3.3-9.3-10.1-23-22-14.2-22.4-2.2 0 0 0 4.8-0.2 12 4.4 2 12.9 4 25.9-0.5z"/></g><path class="f" d="m189.7 508.7c0 0-0.4 27.8-3 44.7 4.6 0.3 4.6 0.3 4.6 0.3 0 0 3.5-24.9-1.6-45z"/><path class="c" d="m180.3 439.4c0 0 6.1 36.3 5.1 58.9 9.1 1 9.1 1 9.1 1l1-8.4 1.3 8.4 5.2 0.6v-4.2l1.6 4.2 11.3 0.7c0 0-5.5-37.6-14.6-65.8 0 0-19.4-12.3-20 4.6z"/><g style="opacity:.5;mix-blend-mode:screen"><path class="d" d="m180.3 439.4c0 0 6.1 36.3 5.1 58.9 9.1 1 9.1 1 9.1 1l1-8.4 1.3 8.4 1.4 0.2c-1.7-30.4-8.3-55.8-12.2-68.8-3.1 0.6-5.5 2.9-5.7 8.7z"/></g><g style="opacity:.5;mix-blend-mode:screen"><path class="d" d="m192.4 461.3c0.4 2.9-0.1 5.3-1.2 5.4-1 0.2-2.2-2-2.6-4.8-0.4-2.9 0.2-5.3 1.2-5.4 1.1-0.2 2.2 2 2.6 4.8z"/><path class="d" d="m195.1 477.9c0 1-0.5 1.9-1.1 1.9-0.6 0-1.1-0.9-1.1-1.9 0-1.1 0.5-1.9 1.1-1.9 0.6 0 1.1 0.8 1.1 1.9z"/><path class="d" d="m194.9 456.6c0 1-0.5 1.8-1.1 1.8-0.6 0-1-0.8-1-1.8 0-1 0.4-1.8 1-1.8 0.6 0 1.1 0.8 1.1 1.8z"/></g><path class="e" d="m200.3 434.8c0 0-4-2.5-8.4-3.7 4.9 16.4 13.1 46.2 15.2 69l2.6 0.2c-0.3-17.9-3.9-41.6-5.7-52.9-1.1-4.3-2.4-8.5-3.7-12.6z"/><g style="opacity:.6;mix-blend-mode:multiply"><path class="c" d="m202.8 443.1q-1.2-4.2-2.5-8.3c0 0-19.4-12.3-20 4.6 0 0 0.6 3.7 1.4 9.6 4.6 0.8 12.7 0.9 21.1-5.9z"/></g><path class="f" d="m183.2 452.3c0 0 5.1 28.1 3.3 43.5 5.6 0.6 5.6 0.6 5.6 0.6 0 0 0-28.7-8.9-44.1z"/><path class="c" d="m165.4 395.3c0 0 12.3 32.1 12.3 50.2 8.4-2.6 8.4-2.6 8.4-2.6l-0.3-6.4 1.9 5.8 9.4-0.3-1.6-6.8 4.8 6.5 4.9-3.6c0 0-14.9-38.9-21.1-48.9-6.1-10.1-21-7.5-18.7 6.1z"/><g style="opacity:.5;mix-blend-mode:screen"><path class="d" d="m177.9 411.1c0.6 2.4 0.3 4.5-0.7 4.7-0.9 0.2-2.2-1.5-2.7-3.8-0.6-2.4-0.3-4.5 0.7-4.7 0.9-0.2 2.2 1.5 2.7 3.8z"/><path class="d" d="m181.7 422.3c0.3 1.2 0.1 2.3-0.4 2.4-0.4 0.1-1.1-0.7-1.3-1.9-0.3-1.2-0.2-2.3 0.3-2.4 0.5-0.1 1.1 0.8 1.4 1.9z"/></g><g style="opacity:.5;mix-blend-mode:screen"><path class="d" d="m165.4 395.3c0 0 12.3 32.1 12.3 50.2 8.4-2.6 8.4-2.6 8.4-2.6l-0.3-6.4 1.9 5.8h0.9c-2.8-20.7-14.2-44.8-20.5-57-2.3 2-3.5 5.4-2.7 10z"/></g><g style="opacity:.6;mix-blend-mode:multiply"><path class="c" d="m187.3 395.3c-1.2-2.5-2.2-4.6-3.2-6.1-6.1-10.1-21-7.5-18.7 6.1 0 0 1.3 3.5 3 8.7 5.1 0.4 12.5-0.8 18.9-8.7z"/></g><path class="f" d="m171.8 410.9c0 0 6.4 19.6 7.5 32.4 2.6-1 3.2-1.2 3.2-1.2 0 0-2.7-21-10.7-31.2z"/><path class="e" d="m184.1 389.2c-2.3-3.8-5.8-5.8-9.2-6.1 5.9 10 16.2 29.8 21.6 53.4l3.8 5.2 2.4-1.8c-0.8-5.9-2.4-12.4-4-18.4-4.8-11.8-11.1-26.7-14.6-32.3z"/><path class="c" d="m153.7 368.5c0 0 8.7 22.6 11.7 33 9-4.2 9-4.2 9-4.2l-2.2-8.1 3.5 7.8 3.9-2-0.6-4.5 2.2 3.5 7.5-3.2-25.9-43.4c0 0-10.1 8.8-9.1 21.1z"/><path class="f" d="m153.7 368.5c0 0 8.7 22.6 11.7 33 9-4.2 9-4.2 9-4.2l-2-7.2c-5.4-9.5-12.2-18.8-18.5-26.6-0.2 1.6-0.3 3.2-0.2 5z"/><path class="f" d="m170.4 380.8c0.9 2.2 0.6 4.4-0.5 4.9-1.2 0.4-2.9-1.1-3.7-3.3-0.9-2.3-0.7-4.5 0.5-4.9 1.2-0.5 2.8 1 3.7 3.3z"/><path class="f" d="m157.1 373.7c0 0 5.6 14.9 8.5 24.8 2.9-1.1 2.9-1.1 2.9-1.1 0 0-5-16.6-11.4-23.7z"/><path class="e" d="m188.7 390.8l-25.9-43.4c0 0-3.7 3.2-6.4 8.5 7.7 9 16.6 22 22.9 39.3l0.3-0.2-0.6-4.5 2.2 3.5z"/><path class="a" d="m159.2 345.1c20.4-27.5 10.4-66.7 10.4-66.7h-5.5l4.5-2.2-5.8-14.6-3.3-1 0.7-2.9-3.9-9.7-4.2 0.6c0 0 0 0 1.6-4.8-13.3-21.7-40.2-28.8-40.2-28.8l2.6 17.4h4.9l-3.6 3.9 5.2 18.8 6.2 0.3-4.6 4.2 3.6 12.3 4.9 1.3c0 0 0 0-3.6 3.3 7.8 11.6 8.7 35 8.7 35z"/><path class="g" d="m113.5 215c0 0 2.2 0.7 5.6 2.6 1.7 1 3.7 2.3 5.9 4 2.2 1.6 4.5 3.6 6.9 6 2.4 2.4 4.8 5.2 7.2 8.2 2.4 3.1 4.5 6.6 6.6 10.2 1 1.9 2.1 3.8 2.9 5.8q0.7 1.4 1.4 2.9 0.6 1.6 1.3 3.1c0.9 2 1.5 4.2 2.3 6.3 0.7 2.1 1.3 4.3 2 6.4q0.8 3.3 1.5 6.6 0.7 3.3 1.3 6.5 0.5 3.3 1 6.5 0.3 3.3 0.7 6.4 0.1 1.6 0.2 3.2 0.1 1.5 0.2 3 0.1 1.5 0.2 3 0 1.5 0 3 0.1 2.9 0.1 5.6 0 2.7-0.1 5.2c0 3.4-0.3 6.5-0.4 9.2-0.1 1.4-0.2 2.7-0.3 3.8q-0.2 1.8-0.3 3.3c-0.4 3.9-0.7 6.1-0.7 6.1 0 0 0.2-2.2 0.5-6.1q0.1-1.5 0.2-3.3c0.1-1.2 0.1-2.4 0.2-3.8 0.1-2.7 0.3-5.8 0.3-9.2q0-2.5 0-5.2-0.1-2.7-0.2-5.6 0-1.5-0.1-2.9-0.1-1.5-0.2-3c-0.2-2-0.2-4.1-0.5-6.2q-0.3-3.1-0.7-6.3-0.5-3.2-1-6.5-0.6-3.2-1.3-6.5-0.8-3.3-1.6-6.5c-0.6-2.2-1.2-4.3-1.9-6.4-0.8-2.1-1.4-4.2-2.3-6.3q-0.6-1.5-1.2-3-0.7-1.5-1.3-3c-0.9-2-2-3.8-2.9-5.7-2.1-3.6-4.2-7.1-6.5-10.1-2.3-3.1-4.6-5.9-7-8.3-2.3-2.4-4.6-4.5-6.7-6.1-2.2-1.7-4.1-3.1-5.8-4.1-3.3-2.1-5.5-2.8-5.5-2.8z"/><g style="opacity:.3;mix-blend-mode:multiply"><path class="h" d="m164.1 278.4l4.5-2.2-1.8-4.6c-6.3 0.6-7.1-2.4-18.6-20.4 10.4 23.3 0.6 34.4-6.8 35.3-7.5 1-7.5 0.3-10.4-7.1-0.4-1.1-1-2.2-1.7-3.1q-0.1 0.1-0.2 0.2c7.8 11.6 8.7 35 8.7 35l21.4 33.6c20.4-27.5 10.4-66.7 10.4-66.7z"/></g><g style="opacity:.6;mix-blend-mode:multiply"><path class="i" d="m170.9 287.5c2.2 9.4 0 23.3-3.3 24.9-3.2 1.7-4.8-2.9-8.7-23.6 0 15.5-8.1 19.1-15.2 19.4-2.7 0.1-4.7-0.5-6.2-1.4 0.3 2.9 0.3 4.7 0.3 4.7l21.4 33.6c16-21.5 13.3-50.2 11.4-61.7-0.2 1.3-0.1 2.6 0.3 4.1z"/></g><path class="j" d="m116.8 218.8l2.6 10.1 6.1 0.9-4.5 5.6 3.6 16.5 6.1 1.3-2.6 5.8 3.3 11c0 0 16.8-3.6 12.3-19.4-5.9-20.4-26.9-31.8-26.9-31.8z"/><g style="mix-blend-mode:screen"><path class="j" d="m149.7 288.6c0 3.4-1.9 6.1-4.2 6.1-2.3 0-4.2-2.7-4.2-6.1 0-3.3 1.9-6.1 4.2-6.1 2.3 0 4.2 2.8 4.2 6.1z"/><path class="j" d="m149.9 276.4c0 1-0.4 1.8-0.9 1.8-0.5 0-0.9-0.8-0.9-1.8 0-1 0.4-1.8 0.9-1.8 0.5 0 0.9 0.8 0.9 1.8z"/><path class="j" d="m167.3 290.7c0 0.8-0.3 1.5-0.8 1.5-0.4 0-0.7-0.7-0.7-1.5 0-0.9 0.3-1.6 0.7-1.6 0.5 0 0.8 0.7 0.8 1.6z"/></g><path class="a" d="m112.9 336.1c0 0-39.2-6.8-75.1 23 0.6 3.9 0.6 3.9 0.6 3.9l-5.5 0.6 1.3 2.9-12.3 8.4 1 2.3c0 0-18.8 14.9-15.3 68 16.6-32 31.1-39.8 31.1-39.8l-3.5-6.2 4.2 2.6c0 0 15.5-12.3 21.7-14.6l-1-7.1 2.6 4.2 1.9-3.2 1.3 1 25-10.4z"/><path class="k" d="m73.5 366.2c0.5 1.1-1.3 2.9-3.9 4-2.6 1-5 1.1-5.5 0-0.4-1.1 1.3-2.9 3.9-3.9 2.6-1.1 5.1-1.1 5.5-0.1z"/><g style="opacity:.3;mix-blend-mode:multiply"><path class="h" d="m83.3 357.9c-4.4 7.3-11.7 23.4-19.5 17.5-7.7-5.8-10.2-13.6 9.3-29.1-19.5 5.3-39.4 26.2-39.4 26.2l-3.4-2.9-0.8 0.1-7.6 5.2 1 2.3c0 0-18.8 14.9-15.3 68 16.6-32 31.1-39.8 31.1-39.8l-3.5-6.2 4.2 2.6c0 0 15.5-12.3 21.7-14.6l-1-7.1 2.6 4.2 1.9-3.2 1.3 1 25-10.4 22-35.6c0 0-1.1-0.2-3.2-0.4-15.2 5.4-23.1 16.7-26.4 22.2z"/></g><g style="opacity:.3;mix-blend-mode:multiply"><path class="h" d="m22.5 387.6c-1.9-0.4-3.7-1.5-5.4-2.8-5.2 9-11.7 27.3-9.5 60.4 12.5-24.1 23.8-34.5 28.6-38.1-11.7-7.8-7.5-18.2-13.7-19.5z"/></g><path class="g" d="m7.6 445.2c0 0 0-0.6-0.1-1.8 0-1.1 0-2.9 0-5.1 0.1-2.1 0.2-4.8 0.5-7.8 0.4-3.1 0.8-6.5 1.6-10.2 0.8-3.6 1.7-7.6 3.1-11.7q0.4-1.5 1-3.1 0.6-1.5 1.2-3.1 0.6-1.6 1.3-3.2 0.7-1.6 1.5-3.2c2-4.2 4.5-8.4 7.2-12.5q1.1-1.5 2.2-3c0.3-0.5 0.7-1.1 1.1-1.5l1.2-1.5 2.3-2.9 2.6-2.8c1.7-1.8 3.6-3.5 5.4-5.2 0.9-0.9 1.9-1.6 2.8-2.4q1.5-1.2 2.9-2.4 3-2.2 6-4.2c2.1-1.3 4.1-2.6 6.1-3.8q3.1-1.6 6.1-3.2c2.1-0.9 4.1-1.8 6.1-2.7 0.5-0.2 1-0.4 1.5-0.6q0.7-0.3 1.4-0.6 1.5-0.5 2.9-1 1.5-0.5 2.8-1c1-0.4 1.9-0.6 2.8-0.9q2.7-0.8 5.1-1.5c1.7-0.5 3.3-0.8 4.8-1.2q2.2-0.5 4.1-0.9c1.3-0.3 2.5-0.5 3.6-0.7 4.3-0.7 6.7-1.2 6.7-1.2 0 0-2.4 0.5-6.7 1.4-1.1 0.2-2.3 0.4-3.5 0.7q-1.9 0.5-4.2 1.1c-1.4 0.4-3 0.7-4.6 1.2q-2.5 0.8-5.1 1.6c-0.9 0.3-1.9 0.6-2.8 0.9q-1.3 0.5-2.7 1.1-1.5 0.5-2.9 1.1-0.7 0.2-1.5 0.5c-0.5 0.2-0.9 0.5-1.4 0.7-2 0.9-4 1.8-6 2.7q-3 1.6-6.1 3.3c-2 1.2-4 2.4-6 3.7q-3 2.1-5.9 4.2-1.5 1.2-2.9 2.4c-0.9 0.8-1.9 1.5-2.8 2.4-1.8 1.7-3.7 3.3-5.3 5.2l-2.5 2.7-2.4 2.9-1.2 1.4c-0.4 0.5-0.7 1-1.1 1.5q-1.1 1.5-2.2 3c-2.7 4.1-5.2 8.2-7.2 12.4-1.1 2.1-1.9 4.2-2.8 6.3q-0.6 1.5-1.2 3.1-0.6 1.5-1.1 3c-1.4 4.1-2.3 8-3.2 11.7-0.8 3.6-1.3 7-1.7 10-0.4 3-0.6 5.7-0.7 7.8-0.1 2.2-0.1 4-0.1 5.1 0 1.2 0 1.8 0 1.8z"/><path class="j" d="m46.3 357.4c0 0 22.4-13.1 45.2-17.9 22.9-4.9-22.8-5.4-45.2 17.9z"/><path class="a" d="m116.5 336.7c0 0-16.9-6.1-22.4-6.8 1.6-11.3 1.6-11.3 1.6-11.3l-6.4 9.1-11.1-2 0.7-7.8-3.6 6.8-16.2-1.3-1.3-8.1-1.6 7.2-7.8 1.9-3.5-9.4-1.6 13.6-16.5 3.6-0.7-7.1-2.9 9-5.5 0.7-2-7.1-1.3 8.4c0 0-10.6 3.5-14.2 8.4 1.3-19.8 17.8-40.8 30.1-49.9 0.7 5.8 0.7 5.8 0.7 5.8l4.8-8 17.2-4.6-0.7 5.5 4.2-7.1c0 0 7.8-2.6 15.6-2.6-1.3 3.9-2.3 5.2-2.3 5.2l9.1-5.8c0 0 29.1 2.6 44.7 12.9-1.6 3.6-1.6 3.6-1.6 3.6l6.4-2-0.9 3.9c0 0 34.6 17.8 30.7 46-36.2-9.7-41.7-10.7-41.7-10.7z"/><path class="g" d="m0.2 344.5c0 0 0.1-0.7 0.5-2 0.4-1.3 1.1-3.2 2.2-5.5 2.1-4.7 5.9-11.1 12.2-17.2 3.2-3 7-5.9 11.3-8.5 4.3-2.6 9.1-4.8 14.3-6.6 5.2-1.7 10.8-3 16.4-3.8 5.7-0.9 11.6-1.2 17.4-1.3 5.9-0.1 11.7 0.5 17.4 1.4 5.7 1 11.2 2.5 16.3 4.3 10.4 3.7 19.3 8.9 26.2 14.3 6.9 5.4 11.8 10.9 14.8 15 1.5 2.1 2.5 3.8 3.1 5 0.3 0.6 0.5 1.1 0.6 1.5q0.2 0.5 0.2 0.5 0 0-0.2-0.5c-0.1-0.4-0.3-0.9-0.6-1.5-0.6-1.2-1.7-2.9-3.2-4.9-3.1-4.1-8.1-9.4-15-14.7-7-5.2-15.9-10.3-26.2-13.9-5.1-1.8-10.5-3.2-16.2-4.2-5.6-0.9-11.4-1.5-17.2-1.4-5.8 0.1-11.6 0.4-17.2 1.2-5.7 0.9-11.2 2.1-16.3 3.8-5.2 1.7-10 3.9-14.3 6.4-4.3 2.5-8 5.4-11.2 8.3-6.4 6-10.3 12.3-12.5 16.8-1.1 2.3-1.8 4.2-2.2 5.5-0.4 1.3-0.6 2-0.6 2z"/><path class="l" d="m127.5 301.4l0.9-3.9-6.4 2c0 0 0 0 1.6-3.6-7.4-4.9-17.9-8.1-26.8-10.1-4.7 8.4-4.6 10.7-27.1 11.4-19.9 0.6-37.3 11.1-26.9 7.4 21.8-6.7 38.4-1.5 31.6 2.1-4.7 2.6-7.1 11.9-8.1 17.3l9 0.7 3.6-6.8-0.7 7.8 11.1 2 6.4-9.1c0 0 0 0-1.6 11.3 5.5 0.7 22.4 6.8 22.4 6.8 0 0 5.5 1 41.7 10.7 3.9-28.2-30.7-46-30.7-46z"/><g style="mix-blend-mode:multiply"><path class="l" d="m127.5 301.4l0.9-3.9-6.4 2c0 0 0 0 1.6-3.6-1.9-1.3-4-2.4-6.3-3.5-0.6 4.9-2.2 9.4-6.5 9.6-9.3 0.6-19.7-2-19.7-2 0 0 10 4.2 25.6 11.5 10 4.7 12.3 10.8 8.7 15.5-3.7 4.7-21.9 2.6-25 0.5-3.1-2.1-4.1-11.9-4.1-11.9l-11.4 11.3 4.4 0.8 6.4-9.1c0 0 0 0-1.6 11.3 5.5 0.7 22.4 6.8 22.4 6.8 0 0 5.5 1 41.7 10.7 3.9-28.2-30.7-46-30.7-46z"/></g><g style="mix-blend-mode:multiply"><path class="m" d="m142.5 312.2v0.1c0 0 5.9 7.7 5.9 11.6 0 3.9-12.7-5.3-18-6.8 10.6 10.2 3.4 16.8-16.8 18.6 1.7 0.6 2.9 1 2.9 1 0 0 5.5 1 41.7 10.7 2.1-15.1-6.9-27.2-15.7-35.2z"/></g><path class="j" d="m42.5 301.6c0 0-19 4.4-35 27.7 5.3-12.2 19.9-32.1 20.9-27.2 0.9 4.8 5.3-7.3 13.1-7.8 7.8-0.5 14.6 2.9 1 7.3z"/><path class="a" d="m158.2 347.4l9.1 17.8 14.9 6.5 4.5-10.4 3 8.8 11.6 2.9 1.6-9.4 2.6 7.8 24 11.6 4.2-7.1 1 6.2 8.1 1.3 3.2-6.2 0.3 6.8 21.7 15.5 8.8-5.5-1 5.9c0 0 20.1 6.5 38.2 32 2.6-3.5 2.6-3.5 2.6-3.5l1 3.5c0 0 8.1-1.9 12.9 12.3 0 0 8.5-20 1.3-50.5-3.5 0.7-3.5 0.7-3.5 0.7l0.6-4.9c0 0-8.4-11.6-12.6-14.2-2.6 3.2-2.6 3.2-2.6 3.2v-5.5c0 0-13.9-13-18.5-16.2-1.3 4.2-2.9 5.8-2.9 5.8l0.7-8.7-16.6-7.1 1.9-6.1-9.9-4.6-6.1 5.1 1.8-7.1-18.9-3.7-7 4 2-4.5c0 0-13.9-2.3-25.5-2.2-5.4 4.5-5.4 4.5-5.4 4.5l0.7-4.7c0 0-42.5 2.7-51.8 19.9z"/><path class="g" d="m158.2 347.4c0 0 0.9-0.2 2.4-0.6 1.6-0.3 3.8-0.8 6.8-1.3 2.9-0.5 6.5-1 10.6-1.4q3.1-0.3 6.5-0.6c2.4-0.1 4.8-0.3 7.3-0.3q2 0 3.9-0.1c1.4 0 2.7 0.1 4.1 0.1 2.7 0 5.6 0.3 8.5 0.5 1.5 0 2.9 0.2 4.4 0.4 1.5 0.2 3 0.4 4.5 0.6q2.3 0.4 4.6 0.8 1.2 0.2 2.3 0.4 1.2 0.2 2.4 0.5 2.3 0.6 4.6 1.1c1.6 0.4 3.2 1 4.7 1.4 3.2 0.9 6.3 2.1 9.4 3.3 6.3 2.4 12.5 5.2 18.5 8.4 12 6.3 23.3 14.1 32.7 22.7 9.5 8.6 16.9 18 22.2 26.8 2.6 4.3 4.6 8.6 6.2 12.4 1.6 3.8 2.7 7.2 3.6 10.1 0.8 2.8 1.3 5.1 1.6 6.7 0.4 1.5 0.5 2.4 0.5 2.4 0 0-0.2-0.9-0.5-2.4-0.3-1.6-0.9-3.8-1.8-6.7-0.9-2.8-2-6.2-3.7-10-1.7-3.8-3.8-7.9-6.4-12.3-2.7-4.3-5.8-8.8-9.6-13.2-3.7-4.5-7.9-8.9-12.6-13.2-9.5-8.5-20.7-16.2-32.7-22.5-5.9-3.1-12.1-6-18.3-8.4-3.1-1.2-6.2-2.3-9.3-3.2-1.6-0.5-3.1-1-4.7-1.5q-2.3-0.5-4.6-1.1-1.2-0.2-2.3-0.5-1.2-0.2-2.3-0.4-2.3-0.4-4.6-0.9c-1.5-0.2-3-0.3-4.5-0.5-1.5-0.2-2.9-0.4-4.4-0.5-2.9-0.3-5.7-0.5-8.4-0.6-1.4 0-2.7-0.1-4.1-0.1q-1.9 0-3.8 0c-2.6 0-5 0.2-7.3 0.3-2.3 0.1-4.5 0.3-6.6 0.4-4.1 0.4-7.7 0.8-10.6 1.3-2.9 0.4-5.2 0.9-6.8 1.2-1.5 0.3-2.4 0.5-2.4 0.5z"/><path class="l" d="m331.8 393.7c-3.5 0.7-3.5 0.7-3.5 0.7l0.6-4.9c0 0-8.4-11.6-12.6-14.2-2.6 3.2-2.6 3.2-2.6 3.2v-5.5c0 0-13.9-13-18.5-16.2-1.3 4.2-2.9 5.8-2.9 5.8l0.7-8.7-16.6-7.1 1.9-6.1-9.9-4.6-6.1 5.1 1.8-7.1-1.7-0.3c-2.8 8.5-6.7 17.3-13.5 15.4-8.7-2.4-28.6-3.4-28.6-3.4 32 7.8 50 24.8 41.7 34.5-7.3 8.6-14 4.9-15.4 3.9l21.4 15.3 8.8-5.5-1 5.9c0 0 20.1 6.5 38.2 32 2.6-3.5 2.6-3.5 2.6-3.5l1 3.5c0 0 8.1-1.9 12.9 12.3 0 0 8.5-20 1.3-50.5z"/><g style="opacity:.5;mix-blend-mode:multiply"><path class="n" d="m331.8 393.7c-3.5 0.7-3.5 0.7-3.5 0.7l0.6-4.9c0 0-2.6-3.6-5.6-7.2-0.8 2.1-1.9 4.5-3.5 6.7-3.8 5.4-41.9-18.4-57.9-28.6 9.7 9.2 51.1 42.7 45.8 49-5.3 6.3-15.5-0.9-15.5-0.9l-1.2-0.2c6.9 5 15.1 12.5 23 23.6 2.6-3.5 2.6-3.5 2.6-3.5l1 3.5c0 0 8.1-1.9 12.9 12.3 0 0 8.5-20 1.3-50.5z"/></g><g style="opacity:.3;mix-blend-mode:multiply"><path class="i" d="m180.9 367.6c0 0-10.2-1.4-10.2-10.6 0-9.3 5.8-10.7 34-14.1-18.9-5.4-26.7-3.9-16-9.7 3.3-1.8 7.5-3.3 11.8-4.6-13.1 1.9-35.8 6.8-42.3 18.8l9.1 17.8 14.9 6.5 4.5-10.4 3 8.8 1.1 0.3-5.5-12.5z"/></g><path class="j" d="m188.7 356c0 0 6.8 9.7 10.7 4.8 3.9-4.8 6.3-0.4 8.2 6.4l19.9 11.1 5.9-8.2 2.9 8.2 5.8 2.5 4.4-10.2c0 0 3.4 9.7 7.8 8.7 4.3-1 6.3-19.9-19.5-27.7-25.7-7.8-57.8-3.9-46.1 4.4z"/><path class="a" d="m157.8 345.2l5.1 17.5-16.4 22.6-8.5-4.8 4.3 7.7-6.8 17.2-4.5-1.4 3.1 5.1-7.1 26.6h-7.3l4.8 4.2-2.9 2.6 1.7 3.1-1.1 26.3-9.9 0.6 5.9 3.7-4.2 3.1 5.4 2.2 2.8 27.2-4.5-0.9 2 2.3-3.2 3.7 3.2 0.8c0 0 1.9 14.5 3.3 19.6 0 0-23.2-24-28.1-35.9 2.5-4.3 2.5-4.3 2.5-4.3l-4.7-0.3c0 0-8.9-14.3-10.4-24.5 3.1-4.9 3.1-4.9 3.1-4.9l-4.3 2-1.7-7.8 2.9-4.4-4.1 1.7c0 0-5.4-17-5.1-26.7 4.6-10 4.6-10 4.6-10l-4.9 2.2c0 0 0-30.8 3.4-42.2 5.8-4.4 7.3-4.9 7.3-4.9h-6.3c0 0 7.4-17.6 14.1-25.5 9-10.7 40.6-24.3 66.5-3.5z"/><g style="mix-blend-mode:multiply"><path class="l" d="m141.1 377.9c-5.9-3.5-7.8-2.5-6.3 4.8 1.4 7.3-1 19.9-15.1 15.6-14.1-4.4-10.2-20.4 15.5-49.1-13.6 3.4-36.4 31.1-40.8 64.1-5.1 1.1-16.4 5.6-21.6 7.7q0 0.3 0 0.3l4.9-2.2c0 0 0 0-4.6 10-0.3 9.7 5.1 26.7 5.1 26.7l4.1-1.7-2.9 4.4 1.7 7.8 4.3-2c0 0 0 0-3.1 4.9 1.5 10.2 10.4 24.5 10.4 24.5l4.7 0.3c0 0 0 0-2.5 4.3 4.9 11.9 28.1 35.9 28.1 35.9-1.4-5.1-3.3-19.6-3.3-19.6l-3.2-0.8 3.2-3.7-2-2.3 4.5 0.9-2.8-27.2-5.4-2.2 4.2-3.1-5.9-3.7 9.9-0.6 1.1-26.3-1.7-3.1 2.9-2.6-4.8-4.2h7.3l7.1-26.6-3.1-5.1 4.5 1.4 6.8-17.2-4.3-7.7 8.5 4.8 16.4-22.6-0.9-3.1c-9.1 8-15.6 21.3-20.9 18.3z"/></g><path class="g" d="m122.6 533c0 0-2.2-2.8-5.5-8.1-3.2-5.3-7.6-13-11.8-22.8-4.2-9.8-8.2-21.6-10.7-34.8-2.5-13-3.5-27.4-2.2-41.6l0.6-5.3c0.2-1.8 0.6-3.4 0.9-5.2q0.6-2.6 1.2-5.2c0.4-1.7 0.9-3.4 1.3-5.1 1.9-6.7 4.3-13.2 7.1-19.3 2.7-6.1 6.1-11.6 9.7-16.5 3.7-4.9 7.7-9.2 11.8-12.5 2.1-1.7 4.2-3.2 6.3-4.5 2.1-1.2 4.1-2.3 6.1-3.2 4-1.7 7.7-2.7 10.7-3.2 3.1-0.5 5.5-0.6 7.2-0.6 1.7 0 2.5 0.1 2.5 0.1 0 0-0.8-0.1-2.5-0.1-1.7 0.1-4.1 0.2-7.2 0.7-3 0.6-6.6 1.6-10.5 3.5-4 1.7-8.1 4.3-12.2 7.7-4.1 3.4-8 7.6-11.6 12.5-3.6 4.9-6.8 10.4-9.6 16.5-2.7 6-5 12.5-6.9 19.2-0.5 1.6-0.9 3.3-1.3 5q-0.6 2.6-1.1 5.2c-0.4 1.7-0.7 3.5-1 5.2l-0.6 5.2c-1.2 14.1-0.3 28.4 2.1 41.4 2.4 13 6.3 24.9 10.4 34.7 4.1 9.8 8.3 17.6 11.5 22.9 3.2 5.3 5.3 8.2 5.3 8.2z"/><g style="mix-blend-mode:screen"><path class="j" d="m115.9 394.8c0 3.6-1.8 6.5-4.1 6.5-2.2 0-4-2.9-4-6.5 0-3.6 1.8-6.5 4-6.5 2.3 0 4.1 2.9 4.1 6.5z"/><path class="j" d="m119.7 404.5c0 1.6-0.7 2.8-1.7 2.8-1 0-1.8-1.2-1.8-2.8 0-1.6 0.8-2.8 1.8-2.8 1 0 1.7 1.2 1.7 2.8z"/><path class="j" d="m124.3 383.4c0 1.9-0.9 3.5-2.1 3.5-1.2 0-2.1-1.6-2.1-3.5 0-2 0.9-3.6 2.1-3.6 1.2 0 2.1 1.6 2.1 3.6z"/></g><path fill-rule="evenodd" class="o" d="m84.5 402.9c-2.6 0-4.7-3.6-4.7-8.1 0-4.5 2.1-8 4.7-8 2.6 0 4.7 3.5 4.7 8 0 4.5-2.1 8.1-4.7 8.1zm0-15.2c-2 0-3.7 3.3-3.7 7.1 0 3.9 1.7 7.1 3.7 7.1 2 0 3.7-3.2 3.7-7.1 0-3.8-1.7-7.1-3.7-7.1z"/><path fill-rule="evenodd" class="o" d="m90.1 407.1c-0.9 0-1.5-1.2-1.5-2.8 0-1.6 0.6-2.7 1.5-2.7 0.9 0 1.6 1.1 1.6 2.7 0 1.6-0.7 2.8-1.6 2.8zm0-4.6c-0.1 0-0.5 0.7-0.5 1.8 0 1.2 0.4 1.8 0.5 1.8 0.2 0 0.6-0.6 0.6-1.8 0-1.1-0.4-1.8-0.6-1.8z"/><path class="j" d="m125.5 349.7c0 0-18.4 15.5-30.1 48.6-3.4 14.5-6.8 11.6-17 16.5 0 0-1.9-24.8 1.9-34.5 13.7-9.7 16.1-10.2 16.1-10.2l-16.1 1.4c0 0 13.2-37.9 50.6-34.5 31.1 3.4-1 10.2-5.4 12.7z"/><path class="l" d="m93.5 449.1c-5.8 0.3-11.5 3-15.7 5.4 0.2 0.8 0.4 1.3 0.4 1.3l4.1-1.7-2.9 4.4 1.7 7.8 4.3-2c0 0 0 0-3.1 4.9 1.5 10.2 10.4 24.5 10.4 24.5l4.7 0.3c0 0 0 0-2.5 4.3 4.9 11.9 28.1 35.9 28.1 35.9-1.4-5.1-3.3-19.6-3.3-19.6l-3.2-0.8 3.2-3.7-2-2.3 4.5 0.9-2.8-27.2-5.4-2.2 4.2-3.1-5.9-3.7 9.9-0.6 0.1-2.6c-15-2.6-17.1-14-28.8-20.2z"/><path class="a" d="m159 346.3c0 0 17.5-20.7 52.5-19.7 0.3-2.9 0.3-2.9 0.3-2.9l1.9 3.4 16.8-0.7-0.3-5.4 2.7 3.9c0 0 19.9-3.4 29.1-2.9 2.2-5.4 2-6.8 2-6.8l1.9 5.8c0 0 13.6 0 20.2 2.2 2.7-4.4 2.7-5.3 2.7-5.3v4.8c0 0 25.2 5.1 35.2 17.7-0.5-5.8-1.2-8-1.2-8 0 0 6.5 11 7 14.1 0 0 5.1-26.5-19.4-51.2-4.9 0.9-4.9 0.9-4.9 0.9l1.2-2.9c0 0-17.7-12.8-33.7-15-5.4 4.8-6.4 5.8-6.4 5.8l0.3-7.5c0 0-11.7-0.3-19.2 0.7-3.6 5.6-3.6 5.6-3.6 5.6l-1.3-4.6c0 0-19.6 0.2-33.5 5.3-3.9 5.8-4.8 7.1-4.8 7.1l-1-6.4c0 0-12.1 6.4-19.4 10-1.2 5.3-2 7.8-2 7.8l-1.9-5.1c0 0-16.1 14.3-21.2 49.3z"/><path class="g" d="m330.2 336.1c0 0-0.1-0.8-0.6-2.2-0.5-1.4-1.3-3.4-2.7-5.8-1.4-2.4-3.3-5.2-5.9-8-2.6-2.8-5.9-5.7-9.8-8.3-3.9-2.7-8.4-5-13.4-7.1-5.1-2-10.5-3.6-16.3-4.9-5.7-1.3-11.8-2.2-18-2.7-6.1-0.4-12.4-0.4-18.7 0.1-12.6 1-24.9 3.9-36 8.2-11 4.2-20.7 9.5-28.3 15.1-3.8 2.8-7.1 5.6-9.9 8.3-2.7 2.7-4.9 5.3-6.5 7.5-1.7 2.2-2.6 4.2-3.3 5.5-0.6 1.3-0.9 2-0.9 2 0 0 0.3-0.7 0.8-2.1 0.7-1.3 1.7-3.2 3.3-5.5 3.1-4.5 8.5-10.5 16.1-16.1 7.7-5.7 17.4-11.3 28.4-15.5 11.1-4.3 23.6-7.3 36.2-8.3 6.3-0.5 12.7-0.6 18.9-0.1 6.2 0.5 12.3 1.5 18.1 2.8 11.6 2.5 22 6.9 29.8 12.3 3.9 2.8 7.2 5.7 9.8 8.6 2.5 2.9 4.4 5.7 5.7 8.1 1.4 2.4 2.2 4.5 2.6 5.9 0.5 1.4 0.6 2.2 0.6 2.2z"/><g style="mix-blend-mode:screen"><path class="j" d="m219.5 313.3c0 2.3-1.5 4.3-3.5 4.3-1.9 0-3.5-2-3.5-4.3 0-2.4 1.6-4.3 3.5-4.3 2 0 3.5 1.9 3.5 4.3z"/><path class="j" d="m229.7 308.2c0 0.7-0.3 1.2-0.8 1.2-0.4 0-0.8-0.5-0.8-1.2 0-0.7 0.4-1.3 0.8-1.3 0.5 0 0.8 0.6 0.8 1.3z"/><path class="j" d="m231.1 290.8c0 0.9-0.7 1.7-1.6 1.7-0.9 0-1.6-0.8-1.6-1.7 0-1 0.7-1.7 1.6-1.7 0.9 0 1.6 0.7 1.6 1.7z"/></g><g style="opacity:.3;mix-blend-mode:multiply"><path class="h" d="m310.4 295.3c-4.9 0.9-4.9 0.9-4.9 0.9l1.2-2.9c0 0-17.7-12.8-33.7-15-5.4 4.8-6.4 5.8-6.4 5.8l0.3-7.5c0 0-0.8-0.1-2.1-0.1-0.4 14.8-26.9 21.3-47.9 24.1 17.1-1.6 28 5.8 27.6 15.6-0.1 3.2-1.2 5.5-2.6 7.2 3.1-0.3 17.9-1.5 20.1-1.4 2.2-5.4 2-6.8 2-6.8l1.9 5.8c0 0 13.6 0 20.2 2.2 2.7-4.4 2.7-5.3 2.7-5.3v4.8c0 0 25.2 5.1 35.2 17.7-0.5-5.8-1.2-8-1.2-8 0 0 6.5 11 7 14.1 0 0 5.1-26.5-19.4-51.2z"/></g><g style="opacity:.6;mix-blend-mode:multiply"><path class="i" d="m310.4 295.3c-4.9 0.9-4.9 0.9-4.9 0.9l1.2-2.9c0 0-1.9-1.3-5-3.3 4 4.5 2 9.2-1.8 9.6-4.3 0.5-16.5-2.4-42.7-3.4 23.3 2 35.9 8.8 44.7 16.1 5.4 4.5 4.1 10.9 2.3 15.1 7.2 2.9 15.1 7.2 19.8 13-0.5-5.8-1.2-8-1.2-8 0 0 6.5 11 7 14.1 0 0 5.1-26.5-19.4-51.2z"/></g><path class="a" d="m213.7 327.1l15.4-0.7c-5.7-0.4-11.5-0.9-16.7-1.7z"/><path class="m" d="m190.1 316.2c4.9-5.4 18-11.2 18-11.2 0 0-2.9 0-12.1 3.9-9.3 3.9-11.2 0-11.2-10.7 0-1.8 0.7-3.5 1.8-5.2q-1.3 0.7-2.5 1.3c-1.2 5.3-2 7.8-2 7.8l-1.9-5.1c0 0-16.1 14.3-21.2 49.3 0 0 17.5-20.7 52.5-19.7 0.1-0.9 0.1-1.5 0.2-2-14-2-24.6-5.1-21.6-8.4z"/><g style="mix-blend-mode:multiply"><path class="m" d="m176.1 323.4c-12 5.2-7.5-9-7.5-9l-0.1-0.2c-3.8 7.8-7.4 18.3-9.5 32.1 0 0 6.1-7.1 18.2-12.8-5.8-0.2-8.6-2.4-1.1-10.1z"/></g><path class="j" d="m200.3 289l3 5.3 7.2-8.7c0 0 17-5.4 28.7-4.9-0.5 5.8 1.5 5.3 1.5 5.3l7.7-6.8 12.2-0.9c0 0-8.3 11.6-28.2 15.5-19.9 3.9-18.9 3.9-34 8.8-15.1 4.8-11.2-9.8 1.9-13.6z"/><path class="a" d="m256.7 120.9l4.8-18.5-5.3-0.5 5.3-1.9 8.3-26.7-5.3-2.5 7.6 1.1c0 0 8.1-16.1 17.6-25.4-3.5-3.5-3.5-3.5-3.5-3.5l4.6 2.6c0 0 11.6-16.2 17.5-19.6-2.4-5.2-2.4-5.2-2.4-5.2l3.9 3.6c0 0 10.2-21.9 20.2-24 0 0-14.3-1-43.2 4.9 0.3 3.8 0.3 3.8 0.3 3.8l-2.5-1.7c0 0-20.5 9.7-26.9 17.8-2.3 5.5-3 8.4-3 8.4l-2.2-5.2c0 0-9.7 8.1-16.5 23.6 1.9 5.2 1.6 6.8 1.6 6.8l-3.9-4.5c0 0-19.1 22.4 4.9 96.2 15.2-24.9 18.1-29.6 18.1-29.6z"/><path class="g" d="m320.5 1.9c0 0-2.6 0.2-6.9 1.7-2.2 0.7-4.7 1.7-7.6 3.1-2.8 1.4-5.9 3.1-9.1 5.3-1.7 1-3.3 2.3-5 3.5-1.6 1.3-3.3 2.7-4.9 4.2-1.7 1.4-3.3 3.1-4.9 4.7-0.8 0.9-1.6 1.8-2.4 2.6-0.8 0.9-1.6 1.8-2.4 2.7q-1.2 1.4-2.3 2.9c-0.8 0.9-1.5 1.9-2.3 2.9-1.5 2-2.9 4.1-4.3 6.2-1.4 2.2-2.7 4.4-4 6.6-1.2 2.3-2.5 4.5-3.6 6.8-1.2 2.4-2.4 4.7-3.4 7-1 2.4-2.1 4.7-3 7.1-0.9 2.4-1.8 4.8-2.6 7.1q-1.2 3.6-2.4 7c-0.7 2.3-1.3 4.7-2 6.9-0.7 2.2-1.2 4.5-1.8 6.6-0.5 2.2-1.1 4.3-1.5 6.3q-0.7 3.1-1.3 6c-0.8 3.7-1.3 7.3-1.9 10.4-0.3 1.5-0.6 3-0.8 4.3q-0.3 2.1-0.5 3.8c-0.7 4.5-1 7-1 7 0 0 0.3-2.5 0.8-7.1q0.2-1.6 0.5-3.7c0.1-1.3 0.4-2.8 0.6-4.4 0.5-3.1 1-6.6 1.8-10.5q0.6-2.8 1.2-5.9c0.4-2.1 0.9-4.2 1.4-6.4 0.6-2.1 1.1-4.4 1.7-6.6 0.7-2.3 1.3-4.6 2-6.9q1.2-3.5 2.3-7.1c0.9-2.3 1.8-4.7 2.7-7.1 0.9-2.4 2-4.8 3-7.1 0.4-1.3 1-2.4 1.6-3.6l1.7-3.5c1.2-2.3 2.5-4.6 3.7-6.9 1.3-2.2 2.6-4.4 4-6.6 1.5-2.1 2.9-4.2 4.4-6.2 0.8-1 1.5-2 2.3-3q1.2-1.4 2.4-2.8c0.7-1 1.5-1.9 2.4-2.7 0.8-0.9 1.6-1.8 2.4-2.6 1.7-1.7 3.3-3.3 5-4.7 1.7-1.6 3.4-2.9 5.1-4.2 1.7-1.2 3.3-2.4 5-3.5 1.6-1.1 3.2-2 4.8-2.9 1.5-0.8 3-1.6 4.5-2.2 2.9-1.3 5.5-2.3 7.6-3 4.4-1.3 7-1.5 7-1.5z"/><g style="mix-blend-mode:screen"><path class="j" d="m247 64.2c0 2.6-1.3 4.7-2.9 4.7-1.6 0-3-2.1-3-4.7 0-2.6 1.4-4.7 3-4.7 1.6 0 2.9 2.1 2.9 4.7z"/><path class="j" d="m260.4 82.1c-0.7 2.4-2.6 4.1-4.1 3.6-1.6-0.5-2.2-2.9-1.4-5.4 0.7-2.4 2.6-4.1 4.1-3.6 1.6 0.5 2.2 2.9 1.4 5.4z"/></g><g style="opacity:.3;mix-blend-mode:multiply"><path class="h" d="m264.5 57.7c2.9-15 16-33.5 16-33.5-9.7 5.3-24.3 26.2-25.3 14.1-0.2-2.9 0.3-6.4 1.3-10.1-1.3 3.5-1.8 5.4-1.8 5.4l-2.2-5.2c0 0-9.7 8.1-16.5 23.6 1.9 5.2 1.6 6.8 1.6 6.8l-3.9-4.5c0 0-19.1 22.4 4.9 96.2 15.2-24.9 18.1-29.6 18.1-29.6l4.8-18.5-5.3-0.5 5.3-1.9 8.3-26.7-5.3-2.5 7.6 1.1c0 0 0.5-1.1 1.5-2.8-5.9 1-11.3-0.4-9.1-11.4z"/></g><g style="opacity:.5;mix-blend-mode:multiply"><path class="i" d="m252.5 103.5c-8.8-1.6 1-34 1-34 0 0-10.4 18.5-16.9 13.3-3.6-2.8-5.6-12.7-6.6-21-4.1 11.6-7.9 38 8.6 88.7 15.2-24.9 18.1-29.6 18.1-29.6l4.7-17.9c-1.8 0.8-4.6 1.3-8.9 0.5z"/></g><path class="j" d="m266.9 32.5c0 0 19.9-20 40.8-27.7-16 1.9-16 1.9-16 1.9l-3.4 5.8-5.4-1.4c0 0-28.6 12.1-16 21.4z"/><path class="a" d="m236.3 151.2c0 0-14.9-26.3-24-31.5 2.3-3.2 2.3-3.2 2.3-3.2l-5.2 0.6c0 0-9.7-17.8-16.8-22.3 5.1-4.9 5.1-4.9 5.1-4.9l-6.1 2.3c0 0-1.6-3.2-7.8-4.2 6.5-5.8 6.2-7.8 6.2-7.8l-12.3 5.5c0 0-14.6-14.2-18.8-16.8 4.2-3.9 5.5-5.5 5.5-5.5l-11 4.5-18.2-10.7 3-3.9-7.8 3c0 0-16.9-7.5-32.1-3.9 8.4-13 31.1-28.2 67.4-23.7-1.6 4.9-2 6.5-2 6.5l5.6-5.2c0 0 10.6 1.6 25.9 13-3.3 5.2-3.3 5.2-3.3 5.2l4.9-1.3c0 0 4.5 3.2 8.4 10-2.3 2.9-2.3 2.9-2.3 2.9l8.1-0.6c0 0 10.4 14.9 16.9 27.5-2.6 2.9-2.6 2.9-2.6 2.9h3.5c0 0 13 25.8 7.5 61.6z"/><g style="opacity:.3;mix-blend-mode:multiply"><path class="h" d="m231.6 96.4c-7.8-1.9-26.8-19.5-33.2-26.2-13.3-13.9-25.7-18.3-25.7-18.3 0 0 29.6 26.1 23.1 32.5-3.5 2.4-7 3.6-10.2 4 4.7 1.2 6 3.8 6 3.8l6.1-2.3c0 0 0 0-5.1 4.9 7.1 4.5 16.8 22.3 16.8 22.3l5.2-0.6c0 0 0 0-2.3 3.2 9.1 5.2 24 31.5 24 31.5 3.8-24.9-1.3-44.9-4.7-54.8z"/></g><g style="mix-blend-mode:screen"><path class="j" d="m190.9 51.8c0.8 1.6 0.6 3.4-0.5 3.9-1 0.5-2.6-0.4-3.4-2.1-0.8-1.7-0.6-3.5 0.5-4 1-0.5 2.6 0.5 3.4 2.2z"/><path class="j" d="m196.9 63.8c0.5 1 0.4 2.1-0.3 2.4-0.6 0.3-1.5-0.3-2-1.3-0.5-1.1-0.4-2.2 0.2-2.5 0.7-0.3 1.6 0.3 2.1 1.4z"/><path class="j" d="m173.8 67.7c0.9 2.1 0.7 4.2-0.6 4.9-1.3 0.6-3.1-0.6-4.1-2.7-1-2-0.7-4.2 0.5-4.8 1.3-0.6 3.2 0.5 4.2 2.6z"/></g><path class="g" d="m238.6 150.5c0 0-0.9-2.9-2.7-7.9-1.8-5-4.6-12-8.4-20.2-3.8-8.3-8.7-17.7-14.8-27.3-6-9.5-13.4-19.2-22-27.7-4.3-4.2-8.9-8.1-13.7-11.5-4.9-3.5-10-6.3-15.2-8.5-5.2-2.3-10.4-3.9-15.5-4.8-5.1-0.9-10-1.3-14.6-1.2-4.5 0.1-8.6 0.6-12.3 1.1-3.6 0.7-6.7 1.4-9.3 2.1q-1.9 0.6-3.4 1-1.4 0.5-2.4 0.9c-1.4 0.4-2.1 0.7-2.1 0.7 0 0 0.7-0.3 2.1-0.8q1-0.3 2.4-0.9 1.5-0.4 3.4-1c2.5-0.8 5.6-1.6 9.3-2.3 3.6-0.7 7.8-1.2 12.3-1.4 4.6-0.1 9.5 0.2 14.7 1.1 5.1 0.9 10.5 2.4 15.7 4.7 5.3 2.2 10.5 5.1 15.4 8.5 4.9 3.4 9.6 7.3 13.9 11.6 8.7 8.6 16 18.4 22 28 3.1 4.8 5.8 9.6 8.2 14.2 2.4 4.6 4.5 9.1 6.4 13.2 3.7 8.3 6.3 15.5 8 20.5 1.8 5 2.6 7.9 2.6 7.9z"/><g style="opacity:.3;mix-blend-mode:multiply"><path class="h" d="m226.2 109.7c-7.1-7.1-16.1-20.1-16.1-20.1 0 0 9 20.1 2.5 22.7-1.7 0.7-3.9 0.4-6.3-0.5 1.9 3.1 3.1 5.3 3.1 5.3l5.2-0.6c0 0 0 0-2.3 3.2 9.1 5.2 24 31.5 24 31.5 2.3-15.2 1.3-28.6-0.6-38.9-2.7 0.8-6.2 0.7-9.5-2.6z"/></g><path class="j" d="m106.3 48.2c0 0 20.2 0.6 24.7 5.1 8.5-1.9 10.1-3.5 10.1-3.5l-2.9 6.1 14.3 8.8 13-4-2.7 7.7c0 0 9.9 8.5 12.5 11.7 16.2-3.7-10.9-50.4-69-31.9z"/><path class="a" d="m268.8 155.4c0 0 6.8-12.2 18-16.1-1-7.7-1-7.7-1-7.7l4.9 5.3c0 0 11.7-9.2 18-10.7-1.5-6.8-1.5-6.8-1.5-6.8l4.4 3.4c0 0 10.7-4.4 17-5.3 1.4-6.8 1.4-6.8 1.4-6.8l1.5 3.9c0 0 18-8.8 35.5-3.9 0 0-10.2-22.4-54-27.2-5.8 2.9-6.8 4.8-6.8 4.8l1-1.9c0 0-29.6 2.9-33.5 15-1.5-2.9-1.5-2.9-1.5-2.9l-15 10.2-0.5 7.3-2-4.4c0 0-18.9 8.3-16 41.3 4.9 5.4 30.1 2.5 30.1 2.5z"/><path class="g" d="m238.6 150.5c0 0 1-2.1 3.1-5.7 2.2-3.6 5.5-8.6 10-14.1 4.6-5.5 10.5-11.5 17.7-16.9 3.6-2.6 7.5-5.1 11.7-7.2 1.1-0.6 2.2-1.1 3.2-1.6q1.7-0.7 3.3-1.4 1.7-0.6 3.4-1.2l3.4-1.1c1.2-0.3 2.3-0.7 3.5-1q1.7-0.4 3.4-0.8c2.3-0.6 4.7-1 7-1.4 0.6-0.1 1.2-0.3 1.7-0.3l1.8-0.3q1.7-0.2 3.4-0.4 3.5-0.3 6.8-0.5c4.5-0.1 8.9 0 12.9 0.6 1.1 0.1 2.1 0.2 3 0.3q1.5 0.3 2.9 0.5 0.8 0.2 1.5 0.3 0.7 0.2 1.3 0.3 1.4 0.4 2.7 0.7c1.7 0.5 3.3 1.1 4.9 1.6 1.5 0.6 3 1.1 4.3 1.8 1.3 0.6 2.5 1.2 3.6 1.9 1 0.6 2 1.2 2.9 1.8q1.2 1 2.2 1.7c0.7 0.5 1.1 1 1.5 1.4 0.8 0.8 1.3 1.2 1.3 1.2 0 0-0.5-0.4-1.3-1.2-0.4-0.3-0.9-0.9-1.6-1.3q-0.9-0.7-2.2-1.6c-0.9-0.6-1.9-1.2-2.9-1.8-1.1-0.6-2.4-1.2-3.7-1.8-1.3-0.6-2.8-1.1-4.3-1.7-1.5-0.5-3.1-1-4.8-1.5q-1.3-0.3-2.7-0.6-0.7-0.2-1.4-0.3-0.7-0.1-1.4-0.2-1.4-0.3-2.8-0.5c-1-0.2-2-0.2-3-0.3-4.1-0.5-8.4-0.5-12.8-0.4q-3.4 0.1-6.8 0.5-1.7 0.2-3.4 0.4l-1.7 0.2c-0.6 0.1-1.2 0.3-1.7 0.4-2.3 0.4-4.7 0.8-6.9 1.4q-1.8 0.4-3.5 0.9c-1.1 0.2-2.2 0.6-3.4 1l-3.4 1q-1.7 0.6-3.3 1.2-1.7 0.7-3.3 1.4c-1 0.5-2.1 0.9-3.1 1.5-4.2 2.1-8.1 4.5-11.7 7.1-7.2 5.3-13.1 11.2-17.7 16.6-4.7 5.4-8.1 10.3-10.3 13.8-2.3 3.5-3.3 5.6-3.3 5.6z"/><path class="k" d="m284 123.2c-2.3 2.4-5.2 3.4-6.5 2.3-1.2-1.2-0.3-4.1 2.1-6.6 2.3-2.5 5.2-3.5 6.4-2.3 1.3 1.2 0.4 4.1-2 6.6z"/><g style="opacity:.3;mix-blend-mode:multiply"><path class="h" d="m311.1 97.6c-19.4-1-33 11.1-33.5 4.8 0.3-3.7 3.2-7.3 6.7-10.4-5 2.3-9.3 5.3-10.6 9.4-1.5-2.9-1.5-2.9-1.5-2.9l-15 10.2-0.5 7.3-2-4.4c0 0-18.9 8.3-16 41.3 4.9 5.4 30.1 2.5 30.1 2.5 0 0 6.8-12.2 18-16.1-1-7.7-1-7.7-1-7.7l4.9 5.3c0 0 0.7-0.5 1.7-1.3-2.8-4.5-6.2-10.4-8.5-15.2-4.4-9.2-2.4-13.6 27.2-22.8z"/></g><g style="opacity:.4;mix-blend-mode:multiply"><path class="i" d="m276.6 109.7c-11.2 4.9-20.4 16-22.8 8.3-0.5-1.7-1-3.3-1.5-4.9-5 3.6-15.8 14.3-13.6 39.8 4.9 5.4 30.1 2.5 30.1 2.5 0 0 2.2-3.9 6.1-8-24-7.8-14.8-19.8 1.7-37.7z"/></g><g style="opacity:.3;mix-blend-mode:multiply"><path class="h" d="m338 89.1c1.1 5.5-7.1 4.7-22 8.5 4.3-0.5 17-2.5 19.9 5.3 1.4 3.8 1.1 7.2 0.4 9.7 6.5-2.2 18.7-5.3 30.7-1.9 0 0-6.1-13.3-29-21.6z"/></g><path class="j" d="m288.3 99.5c0 0 14.5-3.9 24.7-4.9 10.2-0.9 29.2-2.9 18.5-5.3-10.7-2.4-17-6.8-20.9-2.4-3.9 4.3-3.9 2.4-14.6 3.4-10.6 0.9-17.9 9.2-7.7 9.2z"/><path class="a" d="m239.9 155c0 0-8.1-29.3-64.8-30.4 0 5.2 0 5.2 0 5.2l-3.9-3.9c0 0-11.7 0.6-34.3 13.6 3.8 6.5 3.8 6.5 3.8 6.5l-7.7-5.2c0 0-20.7 11.6-27.9 16.2 1.3 6.5 1.3 6.5 1.3 6.5l-4.5-2.6c0 0-16.2 10.3-25.3 31.1 3.3 6.4-1.3 6.4-1.3 6.4 0 0-17.5 29.8 2 64.2 7.7-20.1 20.4-30.2 20.4-30.2l-3.2-6.8 4.1 2.7 12.1-16.6-2.7-5.4 4.5 1.3 21.2-19.3-2.7-9.5 5.4 6.3c0 0 5-4.9 9-6.7 0-4.5 0-4.5 0-4.5l3.2 2.7c0 0 17.1-12.6 26.1-14.9 0.9-6.3 0.9-6.3 0.9-6.3l2.2 3.2c0 0 10.8-5 23-4.1 2.2-4.9 2.2-4.9 2.2-4.9l1.4 3.6c0 0 26.9-0.6 35.5 1.8z"/><path class="g" d="m238.7 152.9c0 0-0.7-0.6-2.2-1.6-1.4-1-3.6-2.4-6.5-4.1-2.9-1.6-6.4-3.4-10.7-5.2-4.3-1.7-9.2-3.3-14.7-4.5-5.6-1.3-11.7-2.1-18.1-2.1-6.5 0-13.3 0.8-20.2 2.4-6.9 1.7-13.7 4.3-20.3 7.7q-2.5 1.3-4.9 2.6-2.4 1.5-4.8 3-2.4 1.5-4.7 3.1l-4.6 3.4c-6 4.5-11.5 9.7-16.5 15.2-5 5.5-9.4 11.3-13.2 17.3-7.7 11.9-12.7 24.2-15.8 35.1-3.1 10.9-4.3 20.4-4.5 27-0.2 3.3 0 5.9 0 7.6 0.2 1.8 0.3 2.8 0.3 2.8 0 0-0.1-1-0.3-2.7-0.1-1.8-0.3-4.4-0.2-7.7 0.2-6.6 1.1-16.2 4.2-27.1 3-11 7.9-23.5 15.6-35.5 3.8-6 8.2-11.9 13.2-17.4 5-5.6 10.6-10.8 16.6-15.4l4.6-3.4q2.4-1.6 4.8-3.1 2.4-1.5 4.8-3c1.7-0.9 3.3-1.8 5-2.7 6.6-3.4 13.6-6 20.5-7.6 6.9-1.7 13.8-2.4 20.4-2.3 6.5 0.1 12.6 0.9 18.2 2.2 11.1 2.6 19.7 6.9 25.4 10.2 2.9 1.7 5 3.1 6.5 4.2 1.4 1 2.1 1.6 2.1 1.6z"/><path class="k" d="m133.4 165.5c-1.2 2.6-3.3 4.1-4.7 3.5-1.4-0.7-1.6-3.3-0.4-5.9 1.3-2.5 3.4-4 4.8-3.4 1.4 0.7 1.5 3.3 0.3 5.8z"/><g style="opacity:.3;mix-blend-mode:multiply"><path class="h" d="m167.8 137.4c-16.5-0.5-48.1 25.2-56.4 34-6.9 7.4-8.4 2.3-19.1-2.4-5.1 5.2-11.3 12.8-15.7 23 3.3 6.4-1.3 6.4-1.3 6.4 0 0-17.5 29.8 2 64.2 7.7-20.1 20.4-30.2 20.4-30.2l-3.2-6.8 4.1 2.7 12.1-16.6-2.7-5.4 4.5 1.3 20.4-18.6c-0.9-1.6-2.2-4.1-4-7.9-4.3-9.2 8.3-31.1 38.9-43.7z"/></g><g style="opacity:.5;mix-blend-mode:multiply"><path class="h" d="m88.1 196.7c-4.6 0.6-8 0.5-10.4 0-0.5 1.7-2.4 1.7-2.4 1.7 0 0-17.5 29.8 2 64.2 7.7-20.1 20.4-30.2 20.4-30.2l-3.2-6.8 4.1 2.7 7.2-9.8c-7.5-11.1-5-23.7-17.7-21.8z"/></g><g style="opacity:.5;mix-blend-mode:multiply"><path class="i" d="m204.6 128.4c2.9 1.4 5.7 2.8 7.7 4.3 8.8 6.1-3.2 2.3-16.2 2.9 25 6.8 20.8 14.6 14.9 14.6-5.8 0-8.4-4.2-8.4-4.2 0 0-1 4.4-8 8.5 2-0.1 4.1-0.1 6.2 0 2.2-4.9 2.2-4.9 2.2-4.9l1.4 3.6c0 0 26.9-0.6 35.5 1.8 0 0-5.1-18.4-35.3-26.6z"/></g><path class="j" d="m199.4 145.2c0 0-0.5 4.8-6.8 6.8-6.3 1.9-13.1 3.8-13.1 3.8l-6.4-5.3-1.4 8.3-22.4 12.6-6.3-2.9 0.5 6.8-5.8 4.8c0 0-1.7-22.7 23.8-37.4 19.4-11.1 40.8-3.4 37.9 2.5z"/><path class="a" d="m240.2 173.8c0 0 14.1 10.7 19.4 12.2 3.9-6.8 3.9-6.8 3.9-6.8l-0.5 8.7 6.3 6.3 5.4-5.8-2.4 7.2c0 0 16.5 18.9 20.9 28.2 3.7-2.1 4.9-2.6 4.9-2.6l-1.5 4.3c0 0 10 17 10.8 22.2 6.9-4.3 9.7-5.1 9.7-5.1l-3.2 7c0 0 19.7 15.1 22.1 32.7 0 0 5.2-31.7-8.4-67.7-3.9-0.9-3.9-0.9-3.9-0.9l1-3c0 0-5.5-17.8-16.8-29.8-4.6 0.4-4.6 0.4-4.6 0.4l1-4.6c0 0-14.9-17.5-18.5-21.3l-5.5 2.1v-3.5c0 0-15.3-10.5-44-2.8-3.4 7.1 3.9 22.6 3.9 22.6z"/><path class="g" d="m237.5 151.2c0 0 2.7 0.2 7.2 1.1 2.3 0.4 5 1.1 8.1 2 3.1 0.9 6.6 2 10.3 3.5 3.7 1.5 7.6 3.4 11.6 5.6 4 2.2 8 4.8 12 7.8 4 3 8 6.3 11.7 10 3.7 3.6 7.1 7.8 10.4 11.9l2.3 3.3c0.8 1.1 1.6 2.1 2.3 3.3q1 1.6 2 3.3l1.1 1.7 0.9 1.7c2.6 4.6 4.8 9.2 6.8 13.8q0.7 1.7 1.4 3.4c0.4 1.2 0.9 2.3 1.2 3.4q1.2 3.4 2.3 6.7c0.6 2.2 1.2 4.3 1.8 6.4 0.2 1 0.5 2 0.8 3q0.3 1.6 0.6 3 0.7 2.9 1.2 5.6c0.4 1.8 0.6 3.5 0.9 5.1q0.4 2.4 0.7 4.4c0.2 1.4 0.3 2.7 0.5 3.8 0.5 4.6 0.8 7.3 0.8 7.3 0 0-0.4-2.7-1-7.2-0.2-1.2-0.3-2.5-0.5-3.8q-0.4-2.1-0.9-4.5c-0.3-1.6-0.6-3.3-0.9-5q-0.6-2.7-1.3-5.6-0.3-1.4-0.7-2.9c-0.2-1-0.6-2-0.8-3.1-0.6-2-1.2-4.1-1.9-6.3q-1.1-3.2-2.3-6.6c-0.8-2.2-1.8-4.5-2.7-6.8-1.9-4.5-4.2-9.1-6.8-13.6l-0.9-1.7-1-1.7q-1.1-1.7-2.1-3.3c-0.7-1.2-1.5-2.2-2.3-3.3l-2.3-3.2c-3.2-4.1-6.6-8.2-10.3-11.8-3.6-3.8-7.6-7-11.5-10.1-2-1.4-3.9-2.9-5.9-4.1-2-1.4-4-2.5-6-3.7-3.9-2.2-7.8-4.1-11.4-5.6-7.3-3.1-13.7-5-18.2-5.9-4.5-1.1-7.2-1.3-7.2-1.3z"/><path class="k" d="m277.7 179.6c2.2 2.5 2.7 5.5 1.3 6.7-1.4 1.2-4.3 0.2-6.4-2.2-2.1-2.4-2.7-5.4-1.2-6.6 1.4-1.3 4.2-0.3 6.3 2.1z"/><path class="k" d="m286.3 186.8c0.6 1.3 0.5 2.6-0.4 3-0.8 0.4-1.9-0.4-2.5-1.7-0.6-1.3-0.4-2.7 0.4-3 0.8-0.4 2 0.4 2.5 1.7z"/><g style="opacity:.3;mix-blend-mode:multiply"><path class="h" d="m327.6 214.6c-3.9-0.9-3.9-0.9-3.9-0.9l1-3c0 0-5.5-17.8-16.8-29.8-4.6 0.4-4.6 0.4-4.6 0.4l1-4.6c0 0-0.8-0.9-2-2.3-1.2 4.5-4.6 4.8-18.4-4.5 20.1 14.9 24.6 31.8 19.4 38.2-2.8 3.6-8.3 8-12.6 11.2 1 1.7 1.9 3.2 2.5 4.5 3.7-2.1 4.9-2.6 4.9-2.6l-1.5 4.3c0 0 10 17 10.8 22.2 6.9-4.3 9.7-5.1 9.7-5.1l-3.2 7c0 0 19.7 15.1 22.1 32.7 0 0 5.2-31.7-8.4-67.7z"/></g><g style="opacity:.4;mix-blend-mode:multiply"><path class="i" d="m316.3 204.9c5.2 15.6 5.8 20.7 0.6 28.5-2.8 4.2-7.5 7.3-11.3 9.2 0.9 2.1 1.6 3.9 1.8 5.1 6.9-4.3 9.7-5.1 9.7-5.1l-3.2 7c0 0 19.7 15.1 22.1 32.7 0 0 3.7-22.5-3.3-51.2-3.8-3.4-8.1-11.5-16.4-26.2z"/></g><g style="opacity:.3;mix-blend-mode:multiply"><path class="i" d="m278.6 166c-6.5-6.4-5.9-11-3-14.3-6.5-2.6-19.8-5.8-39.3-0.5-3.4 7.1 3.9 22.6 3.9 22.6 0 0 9.3 7.1 15.7 10.5 0.7-2.5 1.8-5.8 3.7-9.5 4.4-8.8 5.4-17 19-8.8z"/></g><g style="opacity:.3;mix-blend-mode:multiply"><path class="i" d="m253.3 154.4c-7.8-3.5-4-5 1.8-6-5.5 0.1-11.7 0.9-18.8 2.8-3.4 7.1 3.9 22.6 3.9 22.6 0 0 4.4 3.3 9.2 6.5-0.7-22.2-5.1-25.4 3.9-25.9z"/></g><path class="a" d="m233.6 154.2c0 0-29-12.3-48 21.4 3.6 0.4 3.6 0.4 3.6 0.4l-6 3.5 1.2 2.8c0 0-9.5 18.3-11.5 29.8 5.2 1.2 5.2 1.2 5.2 1.2l-4.8 3.1 2.4 0.4c0 0-7.6 4-4 26.2 2.8 0.4 2.8 0.4 2.8 0.4l-3.6 6.4 3.2 1.2c0 0 2 27.3 12.3 49.6 7.1-29.4 13.5-34.6 13.5-34.6l-2.4-3.5 3.6 1.2 6.7-20.3-3.2-1.6 6.8-3.5 4.3-9.6-3.9-3.5 7.1 2.4 13.9-30.6-4-6.7 6.4 4.7 9.1-17.4c0 0 3.6-14.7-10.7-23.4z"/><path class="g" d="m233.6 154.2c0 0-2.2 0.8-5.8 3.1-1.7 1.1-3.8 2.6-6 4.4-2.3 1.9-4.7 4.1-7.1 6.7-2.5 2.6-5 5.6-7.4 8.9q-0.8 1.2-1.8 2.5-0.8 1.3-1.7 2.7-0.8 1.3-1.6 2.8c-0.6 0.9-1.2 1.9-1.7 2.9-1 1.9-2.1 3.9-3 6q-0.7 1.6-1.5 3.2-0.6 1.6-1.3 3.2c-0.9 2.2-1.6 4.4-2.4 6.7-0.7 2.2-1.3 4.5-2 6.8-0.6 2.3-1.2 4.6-1.8 6.9q-0.7 3.5-1.4 7-0.5 3.4-1 6.8c-0.3 2.3-0.6 4.6-0.8 6.8q-0.1 0.8-0.2 1.7-0.1 0.8-0.1 1.6-0.2 1.7-0.3 3.3-0.1 1.6-0.2 3.1-0.1 1.6-0.1 3.2-0.2 3-0.3 5.9 0 2.9 0.1 5.6c-0.1 3.6 0.1 6.9 0.2 9.8q0 2.1 0.1 4 0.1 1.9 0.2 3.5c0.3 4.2 0.5 6.5 0.5 6.5 0 0-0.2-2.3-0.6-6.5q-0.2-1.6-0.3-3.4-0.2-1.9-0.3-4.1c-0.1-2.9-0.4-6.2-0.4-9.8q0-2.7-0.1-5.6 0.1-2.9 0.1-6 0.1-1.5 0.1-3.1 0.1-1.6 0.2-3.2 0.1-1.6 0.2-3.3 0.1-0.8 0.2-1.6 0-0.8 0.1-1.7c0.3-2.2 0.5-4.5 0.8-6.8q0.5-3.4 1-6.9 0.7-3.5 1.4-7c0.6-2.3 1.1-4.6 1.7-7 0.8-2.2 1.4-4.6 2.2-6.8 0.8-2.3 1.5-4.5 2.4-6.7q0.7-1.6 1.3-3.3 0.8-1.6 1.5-3.1c0.9-2.2 2.1-4.1 3.1-6.1 2.2-4 4.5-7.7 7-10.9 2.4-3.3 4.9-6.3 7.5-8.9 2.5-2.6 4.9-4.8 7.3-6.5 2.3-1.8 4.4-3.3 6.2-4.3 3.5-2.2 5.8-3 5.8-3z"/><g style="opacity:.3;mix-blend-mode:multiply"><path class="h" d="m230.5 189.4c-3.9-2.5-4.9-5.4-3.4 1.9 1.4 7.3-7.8 20.4-20 15.1-12.1-5.4 3.4-34.5 3.4-34.5-16.5 17.5-22.8 41.3-27.6 43.7-2.7 1.3-6.4 2.5-9.2 3.3-1.9 3-4.3 9.7-2 24.1 2.8 0.4 2.8 0.4 2.8 0.4l-3.6 6.4 3.2 1.2c0 0 2 27.3 12.3 49.6 7.1-29.4 13.5-34.6 13.5-34.6l-2.4-3.5 3.6 1.2 6.7-20.3-3.2-1.6 6.8-3.5 4.3-9.6-3.9-3.5 7.1 2.4 13.9-30.6-4-6.7 6.4 4.7 9.1-17.4c0 0 0.7-2.9 0.3-6.8-2.2 13.1-10.8 20.6-14.1 18.6z"/></g><g style="opacity:.5;mix-blend-mode:multiply"><path class="h" d="m181.9 238.9c-4.7 2.8-8.1 3.6-10.3 3.6q0.1 0.3 0.1 0.5c2.8 0.4 2.8 0.4 2.8 0.4l-3.6 6.4 3.2 1.2c0 0 2 27.3 12.3 49.6 7.1-29.4 13.5-34.6 13.5-34.6l-2.4-3.5 3.6 1.2 2.3-7.1c-14-5.9-12.3-23.2-21.5-17.7z"/></g><path class="j" d="m225.9 155.7c0 0-14.2 9.4-34.3 38.5-7.8 14.1-11.7 16.9-11.7 16.9 0 0-3.5-12.3 9.8-28-3.4-2.5-3.4-2.5-3.4-2.5l7.2-2.4-2.9-5.4c0 0 17.8-23.9 35.3-17.1z"/><g style="mix-blend-mode:screen"><path class="j" d="m209.4 197.1c-1.4 2.8-3.8 4.4-5.4 3.6-1.6-0.8-1.6-3.7-0.2-6.5 1.4-2.9 3.9-4.5 5.4-3.7 1.6 0.8 1.7 3.7 0.2 6.6z"/><path class="j" d="m214.7 189.5c0 0.5-0.7 0.9-1.5 0.9-0.8 0-1.4-0.4-1.4-0.9 0-0.5 0.6-0.9 1.4-0.9 0.8 0 1.5 0.4 1.5 0.9z"/><path class="j" d="m195.4 235.3c-0.7 2.6-2.4 4.5-3.8 4.1-1.5-0.4-2-2.8-1.4-5.4 0.7-2.7 2.5-4.5 3.9-4.1 1.4 0.4 2 2.8 1.3 5.4z"/><path class="j" d="m188.5 201c-0.5 0.9-1.2 1.3-1.7 1.1-0.5-0.3-0.4-1.2 0.1-2.1 0.5-0.8 1.3-1.3 1.7-1 0.5 0.3 0.4 1.2-0.1 2z"/><path class="j" d="m207.7 166.9c-0.5 0.8-1.3 1.3-1.8 1-0.5-0.3-0.4-1.2 0.1-2 0.5-0.9 1.3-1.3 1.7-1.1 0.5 0.3 0.5 1.2 0 2.1z"/></g><path class="a" d="m217.8 165.5c-0.9 0.6-1.4 1-1.4 1 0 0 0.3-0.1 1.4-1z"/><path class="m" d="m233.6 154.2c0 0-12.4-5.3-26.3 0.5l0.3 0.2c0 0 16.1-5.4 19.9 1.4-5.3 5.4-8.2 7.9-9.7 9.2 4.1-3 15.9-10.4 19.5-2.9 3.6 7.6-0.1 11.6 5.3 18.2l1.7-3.2c0 0 3.6-14.7-10.7-23.4z"/><path class="a" d="m165.4 652.5c0 0-4.6-19.8-20.8-19.8 12.3-4.5 22.4 9.1 24.3 14-1.9-11.1-9-17.2-9-17.2 0 0 9.4 1.6 12.9 11 0.7-8.7-14.6-21.1-14.6-21.1 0 0 13.3 2.3 16.6 12.4 0 0-3.3-16.9-9.1-19.8 8.7 1.6 10.7 13.6 10.7 13.6 0 0 1.6-10-3.3-19.8 8.1 11.4 8.1 19.5 8.1 19.5 0 0 5.5-11 11.7-16.2 0 0-7.5 13.9-8.1 25.9 3.9-9.7 14.2-9.4 14.2-9.4 0 0-7.1 7.4-7.4 18.8 4.5-7.1 13.9-6.8 13.9-6.8 0 0-6.5 4.5-7.1 14.9z"/><g style="opacity:.5;mix-blend-mode:multiply"><path class="a" d="m191.6 644.4c0.3-11.4 7.4-18.8 7.4-18.8 0 0-10.3-0.3-14.2 9.4 0.6-12 8.1-25.9 8.1-25.9-6.2 5.2-11.7 16.2-11.7 16.2 0 0 0-8.1-8.1-19.5 4.9 9.8 3.3 19.8 3.3 19.8 0 0-2-12-10.7-13.6 5.8 2.9 9.1 19.8 9.1 19.8-3.3-10.1-16.6-12.4-16.6-12.4 0 0 15.3 12.4 14.6 21.1-3.5-9.4-12.9-11-12.9-11 0 0 7.1 6.1 9 17.2-1.8-4.6-10.6-16.6-21.6-14.7 4.9 0.5 12.7 3.5 18.7 15.9 1.8 4.4 8.6 2.7-0.5-12.3-2.7-3.8 5.2 2.6 8.3 11.6 3 8.8 1.9-8.7-3.6-17q-0.1-0.2-0.2-0.3c-5.8-8.2 6.2 3.4 8.2 13.5 2 10 1.4-16.1-0.7-26.3 4 5.8 3.7 17.1 3.7 17.1 0 0 1.5-11.2 5-15.7 3.5-4.5-5.5 9.7-1.9 23.3 1.1-7.5 6.1-11.4 9.5-13.7-3.5 4.6-5.7 12.7-2.9 19.6 2.2-6.5 11-8.9 11-8.9 0 0-7.2 4.3-5.7 13.7h2.2c0.6-10.4 7.1-14.9 7.1-14.9 0 0-9.4-0.3-13.9 6.8z"/></g><path class="p" d="m186.9 650.1c0 0-0.1-0.3-0.2-0.8-0.1-0.5-0.2-1.2-0.3-2.1 0-0.8-0.1-1.8-0.1-2.9 0.1-1.1 0.2-2.3 0.3-3.4 0.2-1.1 0.5-2.3 0.9-3.3 0.1-0.5 0.3-1 0.5-1.5 0.2-0.4 0.4-0.9 0.7-1.2q0.3-0.6 0.6-1c0.2-0.3 0.4-0.6 0.5-0.8 0.4-0.4 0.6-0.6 0.6-0.6 0 0-0.2 0.3-0.4 0.7-0.1 0.3-0.3 0.5-0.4 0.8q-0.2 0.5-0.4 1.1c-0.2 0.4-0.3 0.8-0.5 1.3-0.2 0.4-0.3 0.9-0.4 1.4-0.2 0.5-0.3 1.1-0.4 1.6q-0.2 0.8-0.3 1.7c-0.1 0.5-0.2 1.1-0.2 1.6-0.1 0.6-0.2 1.1-0.2 1.6-0.1 1.1-0.2 2.1-0.2 2.9 0 0.9-0.1 1.6-0.1 2.1 0 0.5 0 0.8 0 0.8z"/><path class="p" d="m184.4 623.9q0 0-0.1 0.2c-0.1 0.2-0.1 0.5-0.2 0.8q-0.1 0.5-0.3 1.2c0 0.5-0.2 1-0.2 1.6q-0.1 0.8-0.2 1.8c-0.1 0.7-0.1 1.4-0.1 2.1 0 0.7-0.1 1.4-0.1 2.2q0.1 1.1 0.1 2.3c0 0.8 0 1.5 0.2 2.3q0.1 1.1 0.2 2.2c0.1 0.7 0.1 1.4 0.2 2.1q0.2 1 0.3 1.8c0.2 1.2 0.4 2.2 0.5 2.8 0.1 0.7 0.1 1.1 0.1 1.1 0 0-0.1-0.4-0.3-1-0.2-0.7-0.5-1.6-0.8-2.8q-0.2-0.8-0.5-1.8-0.2-1-0.3-2.1-0.2-1.1-0.4-2.2c-0.1-0.8-0.1-1.6-0.2-2.4q0-1.1 0-2.3c-0.1-0.8 0.1-1.5 0.1-2.3 0.1-0.7 0.1-1.4 0.3-2.1q0.2-1 0.3-1.8c0.2-0.6 0.4-1.1 0.5-1.6q0.2-0.7 0.4-1.2c0.3-0.6 0.5-0.9 0.5-0.9z"/><path class="p" d="m198 641.2c0 0-0.4 0.5-1 1.3q-0.4 0.6-0.8 1.3-0.5 0.8-0.9 1.6c-0.5 1.1-0.9 2.3-1.2 3.2 0 0.3-0.1 0.5-0.1 0.7q-0.1 0.2-0.1 0.4-0.2 0.5-0.2 0.5 0 0 0-0.5c-0.1-0.2-0.1-0.7-0.1-1.2 0-0.2 0-0.5 0-0.8 0.1-0.2 0.1-0.5 0.2-0.8 0.1-0.3 0.1-0.7 0.3-1 0.1-0.3 0.2-0.6 0.3-0.9 0.3-0.6 0.7-1.2 1.1-1.7q0.5-0.7 1.1-1.2c0.8-0.7 1.4-0.9 1.4-0.9z"/><path class="p" d="m179.1 624.1c0 0 0.1 0.4 0.3 1.1 0.1 0.6 0.3 1.6 0.5 2.8 0.2 1.2 0.5 2.5 0.7 4 0.3 1.5 0.4 3 0.6 4.6q0.1 1.2 0.2 2.4c0.1 0.7 0.2 1.5 0.2 2.3 0.1 1.4 0.1 2.8 0.1 4 0.1 1.2 0 2.2 0 2.9 0 0.7 0 1.1 0 1.1 0 0-0.1-0.4-0.2-1.1 0-0.7-0.2-1.7-0.3-2.8-0.1-1.2-0.3-2.6-0.4-4.1-0.1-0.7-0.2-1.5-0.3-2.2q-0.1-1.2-0.3-2.4-0.1-1.2-0.2-2.3c-0.1-0.8-0.1-1.6-0.2-2.3-0.2-1.5-0.3-2.9-0.4-4-0.1-1.2-0.2-2.2-0.2-2.9-0.1-0.7-0.1-1.1-0.1-1.1z"/><path class="p" d="m172.5 632.5c0 0 0.2 0.3 0.5 0.7 0.2 0.5 0.7 1.1 1.1 1.9 0.4 0.8 0.9 1.7 1.4 2.7 0.5 1.1 0.9 2.2 1.3 3.3q0.3 0.9 0.5 1.7 0.2 0.9 0.4 1.7c0.2 1.2 0.4 2.2 0.4 3.1q0.1 0.7 0 1.3c0.1 0.3 0 0.7 0 0.9-0.1 0.5-0.1 0.8-0.1 0.8 0 0 0-0.3-0.1-0.8 0-0.2 0-0.6-0.1-0.9q-0.1-0.6-0.2-1.2-0.2-0.7-0.3-1.4-0.2-0.7-0.4-1.6c-0.3-1-0.6-2.2-1-3.3-0.2-0.5-0.4-1.1-0.6-1.6q-0.3-0.9-0.6-1.6c-0.4-1.1-0.8-2.1-1.1-2.9-0.7-1.7-1.1-2.8-1.1-2.8z"/><path class="p" d="m167.1 637.4c0 0 0.2 0.1 0.5 0.3q0.2 0.2 0.5 0.5c0.2 0.2 0.4 0.4 0.6 0.6q0.3 0.4 0.7 0.9c0.2 0.2 0.4 0.6 0.6 0.9 0.2 0.4 0.4 0.7 0.6 1.1q0.3 0.6 0.6 1.2c0.1 0.4 0.3 0.7 0.4 1.2q0.2 0.6 0.4 1.1c0.2 0.8 0.4 1.5 0.5 2.2 0.2 1.2 0.3 2.1 0.3 2.1 0 0-0.4-0.8-0.8-2q-0.2-0.4-0.4-0.9-0.2-0.5-0.4-1.1-0.2-0.5-0.5-1.1c-0.1-0.4-0.3-0.8-0.4-1.1-0.4-0.8-0.7-1.6-1.1-2.3-0.1-0.3-0.3-0.7-0.5-1q-0.2-0.4-0.4-0.8c-0.2-0.3-0.4-0.5-0.5-0.8q-0.2-0.3-0.3-0.5c-0.2-0.3-0.4-0.5-0.4-0.5z"/><path class="a" d="m220.7 654.4c0 0 0-13.5-6-23.7 8.7 7 10.4 16.8 10.4 16.8 0 0 0.4-19.2-1.7-23.6 6.2 14.7 5.9 19.4 5.9 19.4 0 0-0.4-22.9-1.5-29.5 5 15.4 6.7 31.4 6.7 31.4 0 0 1.3-22.5 7.8-28.6-2.6 18.4-1.2 28.9-1.2 28.9 0 0 4.4-18.2 19.1-24.3-4.4 5.9-8.1 20.2-8.1 20.2 0 0 7.5-9.2 20.4-9.8-10.3 8.2-15 18.3-15 18.3 0 0 8.4-6.8 17.4-5.4-10.9 7.3-10.9 10.3-10.9 10.3z"/><path class="a" d="m229.3 642.9q0 0.4 0 0.4 0 0 0-0.4z"/><path class="q" d="m257.5 649.9c0 0 4.7-10.1 15-18.3-12.9 0.6-20.4 9.8-20.4 9.8 0 0 3.7-14.3 8.1-20.2-14.7 6.1-19.1 24.3-19.1 24.3 0 0-1.4-10.5 1.2-28.9-6.5 6.1-7.8 28.6-7.8 28.6 0 0-1.7-16-6.7-31.4 1 6.1 1.5 25.9 1.5 29.1q0 0.4 0 0.4 0 0 0-0.4c-0.1-1.5-0.7-6.8-5.9-19 2.1 4.4 1.7 23.6 1.7 23.6 0 0-1.6-9.2-9.7-16.2 2 3 5.9 9.5 7.8 17.9 1.2 6.6 4.5-2.6 3-13.9 3.2 11.1 4 15.2 4 15.2 0 0 1.8-11.7-0.4-23 4.2 15.3 4.6 23.6 4.6 23.6 0 0 2.9-18.2 4.8-25.2-0.5 14.2 0.9 23.8 0.9 23.8 0 0 7-20 15.7-25-5.7 16.5-5.2 20.4-5.2 20.4 0 0 7.6-10.1 17.4-12.2-11.8 10-11.6 18.6-11.6 18.6 0 0 7.1-4.8 12.8-5.5-5 3-7.3 6.5-8.3 8.7l3.1 0.1c0 0 0-3 10.9-10.3-9-1.4-17.4 5.4-17.4 5.4z"/><path class="p" d="m252.9 629.1c0 0-0.8 1.2-1.8 3.1-0.5 1-1.1 2.1-1.6 3.3-0.6 1.3-1.1 2.6-1.6 3.9-0.2 0.7-0.4 1.4-0.6 2.1-0.2 0.6-0.4 1.3-0.5 1.9-0.2 0.7-0.3 1.3-0.5 1.9-0.1 0.6-0.2 1.2-0.3 1.7 0 0.6-0.2 1.1-0.2 1.5q-0.1 0.7-0.1 1.1c-0.1 0.7-0.2 1-0.2 1 0 0 0-0.3 0-1q-0.1-0.5-0.1-1.1c0-0.5 0-1 0.1-1.5 0-0.6 0-1.2 0.1-1.8 0.1-0.6 0.2-1.3 0.3-1.9 0.2-0.7 0.3-1.4 0.5-2.1 0.2-0.7 0.4-1.4 0.6-2.1 0.5-1.4 1.1-2.7 1.7-3.9 0.3-0.7 0.7-1.2 1-1.8 0.3-0.5 0.6-1 0.9-1.5 0.6-0.9 1.2-1.6 1.6-2 0.5-0.5 0.7-0.8 0.7-0.8z"/><path class="p" d="m264.6 634.8c0 0-0.3 0.2-0.8 0.6-0.5 0.3-1.1 0.9-1.9 1.5q-0.6 0.5-1.3 1.1-0.6 0.6-1.3 1.2c-0.5 0.5-0.9 1-1.4 1.4q-0.6 0.8-1.3 1.5c-0.4 0.6-0.8 1.1-1.2 1.6-0.3 0.6-0.7 1.1-1 1.7-0.3 0.5-0.6 1-0.8 1.6-0.3 0.5-0.5 1-0.7 1.5q-0.2 0.7-0.5 1.3-0.1 0.6-0.2 1c-0.1 0.6-0.2 0.9-0.2 0.9 0 0 0-0.3 0-0.9q0-0.5 0.1-1.1 0.1-0.6 0.3-1.4c0.1-0.5 0.3-1.1 0.5-1.6 0.2-0.6 0.5-1.2 0.7-1.7 0.3-0.6 0.7-1.2 1.1-1.8 0.3-0.6 0.8-1.1 1.2-1.7q0.7-0.8 1.4-1.5c0.5-0.5 0.9-1 1.4-1.4 1-0.9 2-1.6 2.9-2.1 0.8-0.6 1.6-1 2.1-1.3 0.6-0.2 0.9-0.4 0.9-0.4z"/><path class="p" d="m265.6 647.5c0 0-0.5 0.3-1.1 0.8q-0.4 0.3-1 0.7c-0.4 0.3-0.8 0.6-1.2 0.9q-0.3 0.2-0.6 0.5-0.3 0.2-0.6 0.4-0.5 0.5-0.9 0.9c-0.1 0.1-0.2 0.2-0.3 0.3q-0.2 0.2-0.2 0.4-0.2 0.3-0.2 0.3 0 0 0-0.4 0-0.2 0.1-0.4c0-0.2 0.1-0.4 0.2-0.5 0.1-0.4 0.4-0.8 0.7-1.2 0.4-0.4 0.8-0.7 1.2-1.1 0.9-0.6 1.8-1.1 2.6-1.3 0.7-0.3 1.3-0.3 1.3-0.3z"/><path class="p" d="m238.6 632c0 0 0 1.3 0 3.2 0 0.9 0 2 0 3.1 0 1.2 0 2.5-0.1 3.7 0.1 1.2 0.1 2.5 0.1 3.6 0 1.2 0.1 2.3 0.1 3.2 0.1 0.9 0.1 1.7 0.2 2.2 0 0.6 0 0.9 0 0.9 0 0-0.1-0.3-0.2-0.8-0.1-0.6-0.3-1.3-0.6-2.2-0.1-1-0.2-2.1-0.4-3.2-0.1-1.2-0.1-2.5-0.1-3.7 0-1.3 0-2.5 0.1-3.7 0.1-1.2 0.2-2.2 0.3-3.2 0.3-1.8 0.6-3.1 0.6-3.1z"/><path class="p" d="m231.4 636.8c0 0 0.1 0.2 0.2 0.6 0.1 0.4 0.2 1 0.3 1.7 0.2 0.8 0.3 1.6 0.4 2.5 0.1 0.9 0.1 1.8 0.2 2.8 0 1 0 1.9 0 2.8-0.1 0.9-0.2 1.8-0.2 2.5-0.1 0.4-0.1 0.7-0.2 1q-0.1 0.4-0.2 0.7c0 0.4-0.1 0.7-0.1 0.7 0 0 0-0.3 0-0.7q-0.1-0.6-0.1-1.7c0-0.7-0.1-1.6-0.1-2.5 0-0.9-0.1-1.8-0.1-2.8q-0.1-1.4-0.1-2.8 0-1.3 0-2.4 0-1.1 0-1.8c0-0.4 0-0.6 0-0.6z"/><path class="p" d="m218.6 638.2c0 0 0.5 0.8 1.1 2q0.4 0.9 0.9 2.2c0.3 0.7 0.6 1.6 0.8 2.5 0.3 0.8 0.5 1.7 0.7 2.6 0 0.4 0.1 0.8 0.1 1.2q0.1 0.6 0.1 1.1c0.1 0.3 0 0.7 0 0.9q0 0.5 0 0.8-0.1 0.6-0.1 0.6c0 0 0-0.2-0.1-0.6q-0.1-0.3-0.2-0.7c0-0.3 0-0.6-0.1-0.9-0.2-0.7-0.4-1.4-0.6-2.2-0.2-0.8-0.4-1.7-0.7-2.6-0.5-1.7-1-3.4-1.4-4.7-0.3-1.3-0.5-2.2-0.5-2.2z"/></svg>