<svg width="50" height="50" viewBox="0 0 50 50" fill="none" xmlns="http://www.w3.org/2000/svg">
<g clip-path="url(#clip0_33_171)">
<path d="M50 25C50 11.1929 38.8071 0 25 0C11.1929 0 0 11.1929 0 25C0 38.8071 11.1929 50 25 50C38.8071 50 50 38.8071 50 25Z" fill="black"/>
<path d="M50 25C50 11.1929 38.8071 0 25 0C11.1929 0 0 11.1929 0 25C0 38.8071 11.1929 50 25 50C38.8071 50 50 38.8071 50 25Z" fill="black"/>
<g clip-path="url(#clip1_33_171)">
<path d="M25.5959 10.3435C25.4782 10.1308 25.2624 10 25.029 10H18.8074C18.2975 10 17.9824 10.5867 18.2441 11.0485L32.7206 36.5951C32.8016 36.738 32.9286 36.8454 33.0785 36.8975L40.354 39.4276C40.928 39.6272 41.4309 38.9711 41.1262 38.4202L25.5959 10.3435Z" fill="white" fill-opacity="0.9"/>
<path fill-rule="evenodd" clip-rule="evenodd" d="M32.9968 25.9232C32.1512 24.0058 30.038 22.8383 27.9804 22.5C22.7479 21.6393 19.4465 21.8183 15.7326 22.6117C14.0043 22.981 11.8417 24.0683 11.0046 25.9234C11.0012 25.9281 11 25.9308 11 25.9308C18.2167 25.0986 25.5495 25.0464 33 25.9308C33 25.9308 32.9991 25.9281 32.9968 25.9232Z" fill="white"/>
<g filter="url(#filter0_d_33_171)">
<path d="M17.4553 10.3617C17.5702 10.1388 17.7914 10 18.0318 10H24.3129C24.8063 10 25.1233 10.553 24.8944 11.0143L16.2478 28.4389C16.1345 28.6672 15.9105 28.8103 15.6664 28.8103H9.0511C8.55319 28.8103 8.23658 28.248 8.47453 27.7863L17.4553 10.3617Z" fill="white"/>
</g>
</g>
</g>
<defs>
<filter id="filter0_d_33_171" x="7.3938" y="9" width="18.5764" height="20.8103" filterUnits="userSpaceOnUse" color-interpolation-filters="sRGB">
<feFlood flood-opacity="0" result="BackgroundImageFix"/>
<feColorMatrix in="SourceAlpha" type="matrix" values="0 0 0 0 0 0 0 0 0 0 0 0 0 0 0 0 0 0 127 0" result="hardAlpha"/>
<feOffset/>
<feGaussianBlur stdDeviation="0.5"/>
<feComposite in2="hardAlpha" operator="out"/>
<feColorMatrix type="matrix" values="0 0 0 0 0 0 0 0 0 0 0 0 0 0 0 0 0 0 0.1 0"/>
<feBlend mode="normal" in2="BackgroundImageFix" result="effect1_dropShadow_33_171"/>
<feBlend mode="normal" in="SourceGraphic" in2="effect1_dropShadow_33_171" result="shape"/>
</filter>
<clipPath id="clip0_33_171">
<rect width="50" height="50" fill="white"/>
</clipPath>
<clipPath id="clip1_33_171">
<rect width="34" height="30" fill="white" transform="translate(8 10)"/>
</clipPath>
</defs>
</svg>
