<svg width="234" height="50" viewBox="0 0 234 50" fill="none" xmlns="http://www.w3.org/2000/svg">
<g clip-path="url(#clip0_10_39)">
<path d="M50 25C50 11.1929 38.8071 0 25 0C11.1929 0 0 11.1929 0 25C0 38.8071 11.1929 50 25 50C38.8071 50 50 38.8071 50 25Z" fill="black"/>
<path d="M50 25C50 11.1929 38.8071 0 25 0C11.1929 0 0 11.1929 0 25C0 38.8071 11.1929 50 25 50C38.8071 50 50 38.8071 50 25Z" fill="black"/>
<g clip-path="url(#clip1_10_39)">
<path d="M25.5959 10.3435C25.4782 10.1308 25.2624 10 25.029 10H18.8074C18.2975 10 17.9824 10.5867 18.2441 11.0485L32.7206 36.5951C32.8016 36.738 32.9286 36.8454 33.0785 36.8975L40.354 39.4276C40.928 39.6272 41.4309 38.9711 41.1262 38.4202L25.5959 10.3435Z" fill="white" fill-opacity="0.9"/>
<path fill-rule="evenodd" clip-rule="evenodd" d="M32.9968 25.9232C32.1512 24.0058 30.038 22.8383 27.9804 22.5C22.7479 21.6393 19.4465 21.8183 15.7326 22.6117C14.0043 22.981 11.8417 24.0683 11.0046 25.9234C11.0012 25.9281 11 25.9308 11 25.9308C18.2167 25.0986 25.5495 25.0464 33 25.9308C33 25.9308 32.9991 25.9281 32.9968 25.9232Z" fill="white"/>
<g filter="url(#filter0_d_10_39)">
<path d="M17.4553 10.3617C17.5702 10.1388 17.7914 10 18.0318 10H24.3129C24.8063 10 25.1233 10.553 24.8944 11.0143L16.2478 28.4389C16.1345 28.6672 15.9105 28.8103 15.6664 28.8103H9.0511C8.55319 28.8103 8.23658 28.248 8.47453 27.7863L17.4553 10.3617Z" fill="white"/>
</g>
</g>
</g>
<path d="M62.184 28.24L62.888 25.04H73.288L74.024 28.24H62.184ZM68.04 17.936L64.52 26.16L64.456 26.992L61.352 34H57.096L68.04 10.352L78.984 34H74.728L71.688 27.184L71.592 26.256L68.04 17.936ZM77.468 19.28H81.244L85.084 28.784L88.924 19.28H92.732L85.084 35.344L77.468 19.28ZM97.0715 29.424C97.0715 29.9147 97.1888 30.3413 97.4235 30.704C97.6582 31.0453 97.9782 31.3013 98.3835 31.472C98.8102 31.6427 99.2902 31.728 99.8235 31.728C100.506 31.728 101.125 31.5893 101.68 31.312C102.256 31.0347 102.714 30.6293 103.056 30.096C103.418 29.5413 103.6 28.9013 103.6 28.176L104.112 30.096C104.112 31.0347 103.834 31.824 103.28 32.464C102.746 33.0827 102.064 33.552 101.232 33.872C100.421 34.1707 99.5888 34.32 98.7355 34.32C97.8182 34.32 96.9648 34.1387 96.1755 33.776C95.3862 33.4133 94.7568 32.88 94.2875 32.176C93.8182 31.472 93.5835 30.6187 93.5835 29.616C93.5835 28.1867 94.0848 27.056 95.0875 26.224C96.0902 25.3707 97.5088 24.944 99.3435 24.944C100.325 24.944 101.168 25.0507 101.872 25.264C102.597 25.4773 103.194 25.7333 103.664 26.032C104.133 26.3093 104.464 26.5653 104.656 26.8V28.56C103.994 28.0907 103.29 27.7493 102.544 27.536C101.797 27.3227 101.008 27.216 100.176 27.216C99.4502 27.216 98.8635 27.312 98.4155 27.504C97.9675 27.6747 97.6262 27.92 97.3915 28.24C97.1782 28.56 97.0715 28.9547 97.0715 29.424ZM95.9835 23.12L94.5755 20.688C95.2368 20.2827 96.0902 19.888 97.1355 19.504C98.2022 19.12 99.4182 18.928 100.784 18.928C102 18.928 103.066 19.1093 103.984 19.472C104.922 19.8347 105.658 20.3573 106.192 21.04C106.725 21.7013 106.992 22.5227 106.992 23.504V34H103.6V24.176C103.6 23.7067 103.514 23.3227 103.344 23.024C103.194 22.7253 102.981 22.48 102.704 22.288C102.426 22.096 102.096 21.9573 101.712 21.872C101.328 21.7867 100.912 21.744 100.464 21.744C99.7808 21.744 99.1302 21.8293 98.5115 22C97.9142 22.1493 97.3915 22.3413 96.9435 22.576C96.5168 22.7893 96.1968 22.9707 95.9835 23.12ZM120.493 25.04C120.493 23.952 120.269 23.1307 119.821 22.576C119.373 22.0213 118.679 21.744 117.741 21.744C117.101 21.744 116.535 21.8827 116.045 22.16C115.554 22.416 115.17 22.8 114.893 23.312C114.615 23.8027 114.477 24.3787 114.477 25.04V34H111.021V19.28H114.477V21.552C114.946 20.6773 115.543 20.0267 116.269 19.6C117.015 19.1733 117.901 18.96 118.925 18.96C120.589 18.96 121.858 19.472 122.733 20.496C123.607 21.4987 124.045 22.8853 124.045 24.656V34H120.493V25.04ZM126.41 19.28H134.762V22.32H126.41V19.28ZM128.874 14.16H132.298V34H128.874V14.16ZM157.683 25.488V22.288H168.467C168.51 23.9307 168.297 25.488 167.827 26.96C167.358 28.4107 166.654 29.7013 165.715 30.832C164.777 31.9627 163.603 32.8587 162.195 33.52C160.809 34.16 159.23 34.48 157.459 34.48C155.774 34.48 154.217 34.2027 152.787 33.648C151.358 33.072 150.11 32.2613 149.043 31.216C147.998 30.1707 147.187 28.9333 146.611 27.504C146.035 26.0747 145.747 24.5067 145.747 22.8C145.747 21.0933 146.035 19.536 146.611 18.128C147.209 16.6987 148.03 15.472 149.075 14.448C150.142 13.4027 151.39 12.6027 152.819 12.048C154.27 11.4933 155.838 11.216 157.523 11.216C158.995 11.216 160.329 11.4187 161.523 11.824C162.718 12.208 163.785 12.7733 164.723 13.52C165.683 14.2453 166.494 15.1307 167.155 16.176L164.083 18.224C163.465 17.1573 162.601 16.304 161.491 15.664C160.403 15.024 159.081 14.704 157.523 14.704C156.073 14.704 154.761 15.0453 153.587 15.728C152.414 16.3893 151.475 17.328 150.771 18.544C150.067 19.7387 149.715 21.1573 149.715 22.8C149.715 24.4213 150.057 25.8507 150.739 27.088C151.443 28.304 152.382 29.2533 153.555 29.936C154.729 30.6187 156.051 30.96 157.523 30.96C158.526 30.96 159.422 30.8213 160.211 30.544C161.001 30.2667 161.683 29.872 162.259 29.36C162.835 28.848 163.315 28.2613 163.699 27.6C164.083 26.9387 164.371 26.2347 164.563 25.488H157.683ZM174.228 29.424C174.228 29.9147 174.345 30.3413 174.58 30.704C174.814 31.0453 175.134 31.3013 175.54 31.472C175.966 31.6427 176.446 31.728 176.98 31.728C177.662 31.728 178.281 31.5893 178.836 31.312C179.412 31.0347 179.87 30.6293 180.212 30.096C180.574 29.5413 180.756 28.9013 180.756 28.176L181.268 30.096C181.268 31.0347 180.99 31.824 180.436 32.464C179.902 33.0827 179.22 33.552 178.388 33.872C177.577 34.1707 176.745 34.32 175.892 34.32C174.974 34.32 174.121 34.1387 173.332 33.776C172.542 33.4133 171.913 32.88 171.444 32.176C170.974 31.472 170.74 30.6187 170.74 29.616C170.74 28.1867 171.241 27.056 172.244 26.224C173.246 25.3707 174.665 24.944 176.5 24.944C177.481 24.944 178.324 25.0507 179.028 25.264C179.753 25.4773 180.35 25.7333 180.82 26.032C181.289 26.3093 181.62 26.5653 181.812 26.8V28.56C181.15 28.0907 180.446 27.7493 179.7 27.536C178.953 27.3227 178.164 27.216 177.332 27.216C176.606 27.216 176.02 27.312 175.572 27.504C175.124 27.6747 174.782 27.92 174.548 28.24C174.334 28.56 174.228 28.9547 174.228 29.424ZM173.14 23.12L171.732 20.688C172.393 20.2827 173.246 19.888 174.292 19.504C175.358 19.12 176.574 18.928 177.94 18.928C179.156 18.928 180.222 19.1093 181.14 19.472C182.078 19.8347 182.814 20.3573 183.348 21.04C183.881 21.7013 184.148 22.5227 184.148 23.504V34H180.756V24.176C180.756 23.7067 180.67 23.3227 180.5 23.024C180.35 22.7253 180.137 22.48 179.86 22.288C179.582 22.096 179.252 21.9573 178.868 21.872C178.484 21.7867 178.068 21.744 177.62 21.744C176.937 21.744 176.286 21.8293 175.668 22C175.07 22.1493 174.548 22.3413 174.1 22.576C173.673 22.7893 173.353 22.9707 173.14 23.12ZM191.601 19.28V34H188.177V19.28H191.601ZM195.985 22.96C195.665 22.704 195.366 22.512 195.089 22.384C194.811 22.256 194.459 22.192 194.033 22.192C193.457 22.192 192.987 22.3413 192.625 22.64C192.262 22.9387 191.995 23.3547 191.825 23.888C191.675 24.4 191.601 25.008 191.601 25.712L190.449 25.04C190.449 23.8667 190.662 22.832 191.089 21.936C191.537 21.0187 192.102 20.2933 192.785 19.76C193.489 19.2267 194.214 18.96 194.961 18.96C195.494 18.96 195.995 19.0453 196.465 19.216C196.934 19.3653 197.329 19.6427 197.649 20.048L195.985 22.96ZM211.093 9.04H214.581V34H211.093V9.04ZM198.901 26.64C198.901 25.0187 199.231 23.6427 199.893 22.512C200.554 21.36 201.429 20.4853 202.516 19.888C203.626 19.2693 204.81 18.96 206.069 18.96C207.306 18.96 208.383 19.2693 209.301 19.888C210.239 20.5067 210.975 21.392 211.509 22.544C212.063 23.6747 212.341 25.04 212.341 26.64C212.341 28.2187 212.063 29.584 211.509 30.736C210.975 31.888 210.239 32.7733 209.301 33.392C208.383 34.0107 207.306 34.32 206.069 34.32C204.81 34.32 203.626 34.0213 202.516 33.424C201.429 32.8053 200.554 31.92 199.893 30.768C199.231 29.616 198.901 28.24 198.901 26.64ZM202.485 26.64C202.485 27.6213 202.687 28.464 203.093 29.168C203.498 29.872 204.031 30.4053 204.693 30.768C205.375 31.1307 206.111 31.312 206.901 31.312C207.562 31.312 208.213 31.1307 208.853 30.768C209.514 30.4053 210.047 29.8827 210.453 29.2C210.879 28.496 211.093 27.6427 211.093 26.64C211.093 25.6373 210.879 24.7947 210.453 24.112C210.047 23.408 209.514 22.8747 208.853 22.512C208.213 22.1493 207.562 21.968 206.901 21.968C206.111 21.968 205.375 22.1493 204.693 22.512C204.031 22.8747 203.498 23.408 203.093 24.112C202.687 24.816 202.485 25.6587 202.485 26.64ZM225.264 34.32C223.771 34.32 222.448 34 221.296 33.36C220.166 32.72 219.291 31.824 218.672 30.672C218.054 29.52 217.744 28.176 217.744 26.64C217.744 25.0827 218.054 23.728 218.672 22.576C219.312 21.424 220.208 20.5387 221.36 19.92C222.512 19.28 223.867 18.96 225.424 18.96C226.982 18.96 228.304 19.2587 229.392 19.856C230.48 20.4533 231.312 21.3173 231.888 22.448C232.486 23.5573 232.784 24.9013 232.784 26.48C232.784 26.6507 232.774 26.832 232.752 27.024C232.752 27.216 232.742 27.3547 232.72 27.44H219.792V25.072H229.776L228.72 26.544C228.784 26.416 228.848 26.2453 228.912 26.032C228.998 25.7973 229.04 25.6053 229.04 25.456C229.04 24.6667 228.88 23.984 228.56 23.408C228.262 22.832 227.835 22.384 227.28 22.064C226.747 21.744 226.118 21.584 225.392 21.584C224.518 21.584 223.771 21.776 223.152 22.16C222.534 22.544 222.064 23.0987 221.744 23.824C221.424 24.5493 221.254 25.4453 221.232 26.512C221.232 27.5787 221.392 28.4853 221.712 29.232C222.032 29.9573 222.502 30.512 223.12 30.896C223.76 31.28 224.528 31.472 225.424 31.472C226.363 31.472 227.184 31.28 227.888 30.896C228.592 30.512 229.179 29.9253 229.648 29.136L232.624 30.352C231.856 31.6747 230.864 32.6667 229.648 33.328C228.432 33.9893 226.971 34.32 225.264 34.32Z" fill="black"/>
<defs>
<filter id="filter0_d_10_39" x="7.3938" y="9" width="18.5764" height="20.8103" filterUnits="userSpaceOnUse" color-interpolation-filters="sRGB">
<feFlood flood-opacity="0" result="BackgroundImageFix"/>
<feColorMatrix in="SourceAlpha" type="matrix" values="0 0 0 0 0 0 0 0 0 0 0 0 0 0 0 0 0 0 127 0" result="hardAlpha"/>
<feOffset/>
<feGaussianBlur stdDeviation="0.5"/>
<feComposite in2="hardAlpha" operator="out"/>
<feColorMatrix type="matrix" values="0 0 0 0 0 0 0 0 0 0 0 0 0 0 0 0 0 0 0.1 0"/>
<feBlend mode="normal" in2="BackgroundImageFix" result="effect1_dropShadow_10_39"/>
<feBlend mode="normal" in="SourceGraphic" in2="effect1_dropShadow_10_39" result="shape"/>
</filter>
<clipPath id="clip0_10_39">
<rect width="50" height="50" fill="white"/>
</clipPath>
<clipPath id="clip1_10_39">
<rect width="34" height="30" fill="white" transform="translate(8 10)"/>
</clipPath>
</defs>
</svg>
